<svg width="665" height="240" viewBox="0 0 665 240" fill="none" xmlns="http://www.w3.org/2000/svg">
<path d="M86.88 97.12C86.88 106.4 83.68 114.133 77.28 120.32C70.9867 126.4 61.3333 129.44 48.32 129.44H26.88V176H12.32V64.48H48.32C60.9067 64.48 70.4533 67.52 76.96 73.6C83.5733 79.68 86.88 87.52 86.88 97.12ZM48.32 117.44C56.4267 117.44 62.4 115.68 66.24 112.16C70.08 108.64 72 103.627 72 97.12C72 83.36 64.1067 76.48 48.32 76.48H26.88V117.44H48.32ZM145.136 177.44C136.923 177.44 129.456 175.573 122.736 171.84C116.123 168.107 110.896 162.827 107.056 156C103.323 149.067 101.456 141.067 101.456 132C101.456 123.04 103.376 115.147 107.216 108.32C111.163 101.387 116.496 96.1067 123.216 92.48C129.936 88.7467 137.456 86.88 145.776 86.88C154.096 86.88 161.616 88.7467 168.336 92.48C175.056 96.1067 180.336 101.333 184.176 108.16C188.123 114.987 190.096 122.933 190.096 132C190.096 141.067 188.07 149.067 184.016 156C180.07 162.827 174.683 168.107 167.856 171.84C161.03 175.573 153.456 177.44 145.136 177.44ZM145.136 164.64C150.363 164.64 155.27 163.413 159.856 160.96C164.443 158.507 168.123 154.827 170.896 149.92C173.776 145.013 175.216 139.04 175.216 132C175.216 124.96 173.83 118.987 171.056 114.08C168.283 109.173 164.656 105.547 160.176 103.2C155.696 100.747 150.843 99.52 145.616 99.52C140.283 99.52 135.376 100.747 130.896 103.2C126.523 105.547 123.003 109.173 120.336 114.08C117.67 118.987 116.336 124.96 116.336 132C116.336 139.147 117.616 145.173 120.176 150.08C122.843 154.987 126.363 158.667 130.736 161.12C135.11 163.467 139.91 164.64 145.136 164.64ZM225.72 102.56C228.28 97.5467 231.907 93.6533 236.6 90.88C241.4 88.1067 247.213 86.72 254.04 86.72V101.76H250.2C233.88 101.76 225.72 110.613 225.72 128.32V176H211.16V88.32H225.72V102.56ZM290.528 100.32V152C290.528 156.267 291.434 159.307 293.248 161.12C295.061 162.827 298.208 163.68 302.688 163.68H313.408V176H300.288C292.181 176 286.101 174.133 282.048 170.4C277.994 166.667 275.968 160.533 275.968 152V100.32H264.608V88.32H275.968V66.24H290.528V88.32H313.408V100.32H290.528ZM368.649 100.32H350.249V176H335.689V100.32H324.329V88.32H335.689V82.08C335.689 72.2667 338.195 65.12 343.209 60.64C348.329 56.0533 356.489 53.76 367.689 53.76V65.92C361.289 65.92 356.755 67.2 354.089 69.76C351.529 72.2133 350.249 76.32 350.249 82.08V88.32H368.649V100.32ZM425.785 177.44C417.572 177.44 410.105 175.573 403.385 171.84C396.772 168.107 391.545 162.827 387.705 156C383.972 149.067 382.105 141.067 382.105 132C382.105 123.04 384.025 115.147 387.865 108.32C391.812 101.387 397.145 96.1067 403.865 92.48C410.585 88.7467 418.105 86.88 426.425 86.88C434.745 86.88 442.265 88.7467 448.985 92.48C455.705 96.1067 460.985 101.333 464.825 108.16C468.772 114.987 470.745 122.933 470.745 132C470.745 141.067 468.718 149.067 464.665 156C460.718 162.827 455.332 168.107 448.505 171.84C441.678 175.573 434.105 177.44 425.785 177.44ZM425.785 164.64C431.012 164.64 435.918 163.413 440.505 160.96C445.092 158.507 448.772 154.827 451.545 149.92C454.425 145.013 455.865 139.04 455.865 132C455.865 124.96 454.478 118.987 451.705 114.08C448.932 109.173 445.305 105.547 440.825 103.2C436.345 100.747 431.492 99.52 426.265 99.52C420.932 99.52 416.025 100.747 411.545 103.2C407.172 105.547 403.652 109.173 400.985 114.08C398.318 118.987 396.985 124.96 396.985 132C396.985 139.147 398.265 145.173 400.825 150.08C403.492 154.987 407.012 158.667 411.385 161.12C415.758 163.467 420.558 164.64 425.785 164.64ZM506.369 57.6V176H491.809V57.6H506.369ZM540.624 74.08C537.85 74.08 535.504 73.12 533.584 71.2C531.664 69.28 530.704 66.9333 530.704 64.16C530.704 61.3867 531.664 59.04 533.584 57.12C535.504 55.2 537.85 54.24 540.624 54.24C543.29 54.24 545.53 55.2 547.344 57.12C549.264 59.04 550.224 61.3867 550.224 64.16C550.224 66.9333 549.264 69.28 547.344 71.2C545.53 73.12 543.29 74.08 540.624 74.08ZM547.664 88.32V176H533.104V88.32H547.664ZM612.639 177.44C604.425 177.44 596.959 175.573 590.239 171.84C583.625 168.107 578.399 162.827 574.559 156C570.825 149.067 568.959 141.067 568.959 132C568.959 123.04 570.879 115.147 574.719 108.32C578.665 101.387 583.999 96.1067 590.719 92.48C597.439 88.7467 604.959 86.88 613.279 86.88C621.599 86.88 629.119 88.7467 635.839 92.48C642.559 96.1067 647.839 101.333 651.679 108.16C655.625 114.987 657.599 122.933 657.599 132C657.599 141.067 655.572 149.067 651.519 156C647.572 162.827 642.185 168.107 635.359 171.84C628.532 175.573 620.959 177.44 612.639 177.44ZM612.639 164.64C617.865 164.64 622.772 163.413 627.359 160.96C631.945 158.507 635.625 154.827 638.399 149.92C641.279 145.013 642.719 139.04 642.719 132C642.719 124.96 641.332 118.987 638.559 114.08C635.785 109.173 632.159 105.547 627.679 103.2C623.199 100.747 618.345 99.52 613.119 99.52C607.785 99.52 602.879 100.747 598.399 103.2C594.025 105.547 590.505 109.173 587.839 114.08C585.172 118.987 583.839 124.96 583.839 132C583.839 139.147 585.119 145.173 587.679 150.08C590.345 154.987 593.865 158.667 598.239 161.12C602.612 163.467 607.412 164.64 612.639 164.64Z" fill="#F5F5F5"/>
<path d="M17.478 30.454V31.786H12.024V36.016H16.452V37.348H12.024V43H10.386V30.454H17.478ZM28.4203 33.136V43H26.7823V41.542C26.4703 42.046 26.0323 42.442 25.4683 42.73C24.9163 43.006 24.3043 43.144 23.6323 43.144C22.8643 43.144 22.1743 42.988 21.5623 42.676C20.9503 42.352 20.4643 41.872 20.1043 41.236C19.7563 40.6 19.5823 39.826 19.5823 38.914V33.136H21.2023V38.698C21.2023 39.67 21.4483 40.42 21.9403 40.948C22.4323 41.464 23.1043 41.722 23.9563 41.722C24.8323 41.722 25.5223 41.452 26.0263 40.912C26.5303 40.372 26.7823 39.586 26.7823 38.554V33.136H28.4203ZM33.04 29.68V43H31.402V29.68H33.04ZM37.6857 29.68V43H36.0477V29.68H37.6857ZM44.1854 43.162C43.4294 43.162 42.7514 43.036 42.1514 42.784C41.5514 42.52 41.0774 42.16 40.7294 41.704C40.3814 41.236 40.1894 40.702 40.1534 40.102H41.8454C41.8934 40.594 42.1214 40.996 42.5294 41.308C42.9494 41.62 43.4954 41.776 44.1674 41.776C44.7914 41.776 45.2834 41.638 45.6434 41.362C46.0034 41.086 46.1834 40.738 46.1834 40.318C46.1834 39.886 45.9914 39.568 45.6074 39.364C45.2234 39.148 44.6294 38.938 43.8254 38.734C43.0934 38.542 42.4934 38.35 42.0254 38.158C41.5694 37.954 41.1734 37.66 40.8374 37.276C40.5134 36.88 40.3514 36.364 40.3514 35.728C40.3514 35.224 40.5014 34.762 40.8014 34.342C41.1014 33.922 41.5274 33.592 42.0794 33.352C42.6314 33.1 43.2614 32.974 43.9694 32.974C45.0614 32.974 45.9434 33.25 46.6154 33.802C47.2874 34.354 47.6474 35.11 47.6954 36.07H46.0574C46.0214 35.554 45.8114 35.14 45.4274 34.828C45.0554 34.516 44.5514 34.36 43.9154 34.36C43.3274 34.36 42.8594 34.486 42.5114 34.738C42.1634 34.99 41.9894 35.32 41.9894 35.728C41.9894 36.052 42.0914 36.322 42.2954 36.538C42.5114 36.742 42.7754 36.91 43.0874 37.042C43.4114 37.162 43.8554 37.3 44.4194 37.456C45.1274 37.648 45.7034 37.84 46.1474 38.032C46.5914 38.212 46.9694 38.488 47.2814 38.86C47.6054 39.232 47.7734 39.718 47.7854 40.318C47.7854 40.858 47.6354 41.344 47.3354 41.776C47.0354 42.208 46.6094 42.55 46.0574 42.802C45.5174 43.042 44.8934 43.162 44.1854 43.162ZM52.3117 34.486V40.3C52.3117 40.78 52.4137 41.122 52.6177 41.326C52.8217 41.518 53.1757 41.614 53.6797 41.614H54.8857V43H53.4097C52.4977 43 51.8137 42.79 51.3577 42.37C50.9017 41.95 50.6737 41.26 50.6737 40.3V34.486H49.3957V33.136H50.6737V30.652H52.3117V33.136H54.8857V34.486H52.3117ZM56.4743 38.032C56.4743 37.024 56.6783 36.142 57.0863 35.386C57.4943 34.618 58.0523 34.024 58.7603 33.604C59.4803 33.184 60.2783 32.974 61.1543 32.974C62.0183 32.974 62.7683 33.16 63.4043 33.532C64.0403 33.904 64.5143 34.372 64.8263 34.936V33.136H66.4823V43H64.8263V41.164C64.5023 41.74 64.0163 42.22 63.3683 42.604C62.7323 42.976 61.9883 43.162 61.1363 43.162C60.2603 43.162 59.4683 42.946 58.7603 42.514C58.0523 42.082 57.4943 41.476 57.0863 40.696C56.6783 39.916 56.4743 39.028 56.4743 38.032ZM64.8263 38.05C64.8263 37.306 64.6763 36.658 64.3763 36.106C64.0763 35.554 63.6683 35.134 63.1523 34.846C62.6483 34.546 62.0903 34.396 61.4783 34.396C60.8663 34.396 60.3083 34.54 59.8043 34.828C59.3003 35.116 58.8983 35.536 58.5983 36.088C58.2983 36.64 58.1483 37.288 58.1483 38.032C58.1483 38.788 58.2983 39.448 58.5983 40.012C58.8983 40.564 59.3003 40.99 59.8043 41.29C60.3083 41.578 60.8663 41.722 61.4783 41.722C62.0903 41.722 62.6483 41.578 63.1523 41.29C63.6683 40.99 64.0763 40.564 64.3763 40.012C64.6763 39.448 64.8263 38.794 64.8263 38.05ZM68.8544 38.05C68.8544 37.03 69.0584 36.142 69.4664 35.386C69.8744 34.618 70.4384 34.024 71.1584 33.604C71.8904 33.184 72.7244 32.974 73.6604 32.974C74.8724 32.974 75.8684 33.268 76.6484 33.856C77.4404 34.444 77.9624 35.26 78.2144 36.304H76.4504C76.2824 35.704 75.9524 35.23 75.4604 34.882C74.9804 34.534 74.3804 34.36 73.6604 34.36C72.7244 34.36 71.9684 34.684 71.3924 35.332C70.8164 35.968 70.5284 36.874 70.5284 38.05C70.5284 39.238 70.8164 40.156 71.3924 40.804C71.9684 41.452 72.7244 41.776 73.6604 41.776C74.3804 41.776 74.9804 41.608 75.4604 41.272C75.9404 40.936 76.2704 40.456 76.4504 39.832H78.2144C77.9504 40.84 77.4224 41.65 76.6304 42.262C75.8384 42.862 74.8484 43.162 73.6604 43.162C72.7244 43.162 71.8904 42.952 71.1584 42.532C70.4384 42.112 69.8744 41.518 69.4664 40.75C69.0584 39.982 68.8544 39.082 68.8544 38.05ZM86.124 43L82.254 38.644V43H80.616V29.68H82.254V37.51L86.052 33.136H88.338L83.694 38.05L88.356 43H86.124ZM99.0165 30.454C100.384 30.454 101.566 30.712 102.562 31.228C103.57 31.732 104.338 32.458 104.866 33.406C105.406 34.354 105.676 35.47 105.676 36.754C105.676 38.038 105.406 39.154 104.866 40.102C104.338 41.038 103.57 41.758 102.562 42.262C101.566 42.754 100.384 43 99.0165 43H95.1105V30.454H99.0165ZM99.0165 41.65C100.636 41.65 101.872 41.224 102.724 40.372C103.576 39.508 104.002 38.302 104.002 36.754C104.002 35.194 103.57 33.976 102.706 33.1C101.854 32.224 100.624 31.786 99.0165 31.786H96.7485V41.65H99.0165ZM117.053 37.69C117.053 38.002 117.035 38.332 116.999 38.68H109.115C109.175 39.652 109.505 40.414 110.105 40.966C110.717 41.506 111.455 41.776 112.319 41.776C113.027 41.776 113.615 41.614 114.083 41.29C114.563 40.954 114.899 40.51 115.091 39.958H116.855C116.591 40.906 116.063 41.68 115.271 42.28C114.479 42.868 113.495 43.162 112.319 43.162C111.383 43.162 110.543 42.952 109.799 42.532C109.067 42.112 108.491 41.518 108.071 40.75C107.651 39.97 107.441 39.07 107.441 38.05C107.441 37.03 107.645 36.136 108.053 35.368C108.461 34.6 109.031 34.012 109.763 33.604C110.507 33.184 111.359 32.974 112.319 32.974C113.255 32.974 114.083 33.178 114.803 33.586C115.523 33.994 116.075 34.558 116.459 35.278C116.855 35.986 117.053 36.79 117.053 37.69ZM115.361 37.348C115.361 36.724 115.223 36.19 114.947 35.746C114.671 35.29 114.293 34.948 113.813 34.72C113.345 34.48 112.823 34.36 112.247 34.36C111.419 34.36 110.711 34.624 110.123 35.152C109.547 35.68 109.217 36.412 109.133 37.348H115.361ZM123.103 41.488L126.163 33.136H127.909L124.039 43H122.131L118.261 33.136H120.025L123.103 41.488ZM138.737 37.69C138.737 38.002 138.719 38.332 138.683 38.68H130.799C130.859 39.652 131.189 40.414 131.789 40.966C132.401 41.506 133.139 41.776 134.003 41.776C134.711 41.776 135.299 41.614 135.767 41.29C136.247 40.954 136.583 40.51 136.775 39.958H138.539C138.275 40.906 137.747 41.68 136.955 42.28C136.163 42.868 135.179 43.162 134.003 43.162C133.067 43.162 132.227 42.952 131.483 42.532C130.751 42.112 130.175 41.518 129.755 40.75C129.335 39.97 129.125 39.07 129.125 38.05C129.125 37.03 129.329 36.136 129.737 35.368C130.145 34.6 130.715 34.012 131.447 33.604C132.191 33.184 133.043 32.974 134.003 32.974C134.939 32.974 135.767 33.178 136.487 33.586C137.207 33.994 137.759 34.558 138.143 35.278C138.539 35.986 138.737 36.79 138.737 37.69ZM137.045 37.348C137.045 36.724 136.907 36.19 136.631 35.746C136.355 35.29 135.977 34.948 135.497 34.72C135.029 34.48 134.507 34.36 133.931 34.36C133.103 34.36 132.395 34.624 131.807 35.152C131.231 35.68 130.901 36.412 130.817 37.348H137.045ZM142.753 29.68V43H141.115V29.68H142.753ZM150.063 43.162C149.139 43.162 148.299 42.952 147.543 42.532C146.799 42.112 146.211 41.518 145.779 40.75C145.359 39.97 145.149 39.07 145.149 38.05C145.149 37.042 145.365 36.154 145.797 35.386C146.241 34.606 146.841 34.012 147.597 33.604C148.353 33.184 149.199 32.974 150.135 32.974C151.071 32.974 151.917 33.184 152.673 33.604C153.429 34.012 154.023 34.6 154.455 35.368C154.899 36.136 155.121 37.03 155.121 38.05C155.121 39.07 154.893 39.97 154.437 40.75C153.993 41.518 153.387 42.112 152.619 42.532C151.851 42.952 150.999 43.162 150.063 43.162ZM150.063 41.722C150.651 41.722 151.203 41.584 151.719 41.308C152.235 41.032 152.649 40.618 152.961 40.066C153.285 39.514 153.447 38.842 153.447 38.05C153.447 37.258 153.291 36.586 152.979 36.034C152.667 35.482 152.259 35.074 151.755 34.81C151.251 34.534 150.705 34.396 150.117 34.396C149.517 34.396 148.965 34.534 148.461 34.81C147.969 35.074 147.573 35.482 147.273 36.034C146.973 36.586 146.823 37.258 146.823 38.05C146.823 38.854 146.967 39.532 147.255 40.084C147.555 40.636 147.951 41.05 148.443 41.326C148.935 41.59 149.475 41.722 150.063 41.722ZM159.128 34.954C159.452 34.39 159.932 33.922 160.568 33.55C161.216 33.166 161.966 32.974 162.818 32.974C163.694 32.974 164.486 33.184 165.194 33.604C165.914 34.024 166.478 34.618 166.886 35.386C167.294 36.142 167.498 37.024 167.498 38.032C167.498 39.028 167.294 39.916 166.886 40.696C166.478 41.476 165.914 42.082 165.194 42.514C164.486 42.946 163.694 43.162 162.818 43.162C161.978 43.162 161.234 42.976 160.586 42.604C159.95 42.22 159.464 41.746 159.128 41.182V47.68H157.49V33.136H159.128V34.954ZM165.824 38.032C165.824 37.288 165.674 36.64 165.374 36.088C165.074 35.536 164.666 35.116 164.15 34.828C163.646 34.54 163.088 34.396 162.476 34.396C161.876 34.396 161.318 34.546 160.802 34.846C160.298 35.134 159.89 35.56 159.578 36.124C159.278 36.676 159.128 37.318 159.128 38.05C159.128 38.794 159.278 39.448 159.578 40.012C159.89 40.564 160.298 40.99 160.802 41.29C161.318 41.578 161.876 41.722 162.476 41.722C163.088 41.722 163.646 41.578 164.15 41.29C164.666 40.99 165.074 40.564 165.374 40.012C165.674 39.448 165.824 38.788 165.824 38.032ZM178.87 37.69C178.87 38.002 178.852 38.332 178.816 38.68H170.932C170.992 39.652 171.322 40.414 171.922 40.966C172.534 41.506 173.272 41.776 174.136 41.776C174.844 41.776 175.432 41.614 175.9 41.29C176.38 40.954 176.716 40.51 176.908 39.958H178.672C178.408 40.906 177.88 41.68 177.088 42.28C176.296 42.868 175.312 43.162 174.136 43.162C173.2 43.162 172.36 42.952 171.616 42.532C170.884 42.112 170.308 41.518 169.888 40.75C169.468 39.97 169.258 39.07 169.258 38.05C169.258 37.03 169.462 36.136 169.87 35.368C170.278 34.6 170.848 34.012 171.58 33.604C172.324 33.184 173.176 32.974 174.136 32.974C175.072 32.974 175.9 33.178 176.62 33.586C177.34 33.994 177.892 34.558 178.276 35.278C178.672 35.986 178.87 36.79 178.87 37.69ZM177.178 37.348C177.178 36.724 177.04 36.19 176.764 35.746C176.488 35.29 176.11 34.948 175.63 34.72C175.162 34.48 174.64 34.36 174.064 34.36C173.236 34.36 172.528 34.624 171.94 35.152C171.364 35.68 171.034 36.412 170.95 37.348H177.178ZM182.887 34.738C183.175 34.174 183.583 33.736 184.111 33.424C184.651 33.112 185.305 32.956 186.073 32.956V34.648H185.641C183.805 34.648 182.887 35.644 182.887 37.636V43H181.249V33.136H182.887V34.738Z" fill="#F5F5F5"/>
<rect x="408" y="108" width="225" height="29" fill="#1A1A1A"/>
<path d="M440.214 132.466C439.627 132.466 439.136 132.312 438.74 132.004C438.359 131.696 438.073 131.278 437.882 130.75C437.706 130.237 437.618 129.679 437.618 129.078C437.618 127.142 437.992 124.993 438.74 122.632C439.503 120.271 440.61 117.88 442.062 115.46C441.681 115.636 441.211 115.951 440.654 116.406C440.097 116.846 439.495 117.367 438.85 117.968C438.219 118.569 437.581 119.2 436.936 119.86C436.291 120.505 435.682 121.143 435.11 121.774C434.553 122.39 434.069 122.94 433.658 123.424C433.262 123.893 432.991 124.253 432.844 124.502C432.727 124.663 432.573 124.744 432.382 124.744C432.147 124.744 431.927 124.634 431.722 124.414C431.517 124.179 431.414 123.945 431.414 123.71C431.414 123.622 431.487 123.461 431.634 123.226C431.693 123.109 431.759 122.984 431.832 122.852C431.92 122.705 432.015 122.551 432.118 122.39C432.323 122.053 432.543 121.679 432.778 121.268C433.013 120.857 433.233 120.439 433.438 120.014C433.526 119.809 433.651 119.537 433.812 119.2C433.973 118.848 434.135 118.474 434.296 118.078C434.472 117.667 434.611 117.264 434.714 116.868C434.831 116.472 434.89 116.135 434.89 115.856C434.89 115.416 434.736 115.196 434.428 115.196C434.208 115.196 433.841 115.328 433.328 115.592C432.653 115.973 431.935 116.516 431.172 117.22C430.424 117.909 429.676 118.709 428.928 119.618C428.18 120.513 427.469 121.466 426.794 122.478C426.134 123.49 425.547 124.502 425.034 125.514C424.521 126.511 424.125 127.457 423.846 128.352C423.758 128.469 423.633 128.587 423.472 128.704C423.311 128.821 423.149 128.88 422.988 128.88C422.841 128.88 422.717 128.821 422.614 128.704C422.511 128.587 422.46 128.411 422.46 128.176C422.46 128.044 422.497 127.883 422.57 127.692C422.599 127.604 422.636 127.509 422.68 127.406C422.724 127.303 422.761 127.201 422.79 127.098C422.863 126.922 423.054 126.526 423.362 125.91C423.685 125.294 424.073 124.561 424.528 123.71C424.983 122.845 425.481 121.891 426.024 120.85C426.567 119.809 427.102 118.76 427.63 117.704C427.997 116.971 428.305 116.23 428.554 115.482C428.803 114.719 428.928 114.037 428.928 113.436C428.928 112.835 428.745 112.343 428.378 111.962C428.011 111.581 427.351 111.39 426.398 111.39C425.034 111.39 423.611 111.537 422.13 111.83C420.663 112.109 419.189 112.497 417.708 112.996C416.241 113.495 414.811 114.074 413.418 114.734C412.039 115.394 410.756 116.113 409.568 116.89C408.38 117.653 407.339 118.437 406.444 119.244C405.549 120.051 404.853 120.85 404.354 121.642C403.855 122.434 403.606 123.189 403.606 123.908C403.606 123.996 403.606 124.084 403.606 124.172C403.621 124.245 403.635 124.319 403.65 124.392C403.723 124.803 403.899 125.089 404.178 125.25C404.471 125.397 404.801 125.47 405.168 125.47C405.476 125.47 405.799 125.441 406.136 125.382C406.488 125.309 406.803 125.235 407.082 125.162C407.111 125.162 407.133 125.162 407.148 125.162C407.177 125.147 407.199 125.14 407.214 125.14C407.302 125.14 407.383 125.155 407.456 125.184C407.529 125.213 407.595 125.243 407.654 125.272C407.742 125.331 407.786 125.397 407.786 125.47C407.786 125.587 407.705 125.668 407.544 125.712C406.84 125.961 406.085 126.086 405.278 126.086C404.765 126.086 404.273 126.013 403.804 125.866C403.349 125.719 402.975 125.47 402.682 125.118C402.389 124.766 402.242 124.297 402.242 123.71C402.242 122.947 402.513 122.148 403.056 121.312C403.599 120.476 404.354 119.64 405.322 118.804C406.29 117.968 407.412 117.161 408.688 116.384C409.964 115.592 411.335 114.859 412.802 114.184C414.283 113.495 415.809 112.901 417.378 112.402C418.947 111.889 420.509 111.493 422.064 111.214C423.619 110.921 425.1 110.774 426.508 110.774C427.872 110.774 428.84 111.016 429.412 111.5C429.984 111.969 430.27 112.607 430.27 113.414C430.27 114.045 430.131 114.741 429.852 115.504C429.588 116.252 429.243 117.029 428.818 117.836C428.598 118.261 428.385 118.657 428.18 119.024C427.989 119.391 427.806 119.735 427.63 120.058C428.231 119.325 428.855 118.613 429.5 117.924C430.16 117.235 430.82 116.619 431.48 116.076C432.14 115.533 432.778 115.101 433.394 114.778C434.025 114.455 434.611 114.294 435.154 114.294C435.609 114.294 435.931 114.419 436.122 114.668C436.313 114.903 436.408 115.211 436.408 115.592C436.408 116.017 436.313 116.509 436.122 117.066C435.931 117.609 435.704 118.151 435.44 118.694C435.191 119.222 434.956 119.684 434.736 120.08C434.531 120.461 434.333 120.828 434.142 121.18C433.951 121.517 433.761 121.855 433.57 122.192C434.039 121.723 434.619 121.136 435.308 120.432C436.012 119.728 436.753 118.995 437.53 118.232C438.175 117.616 438.828 117.007 439.488 116.406C440.148 115.805 440.801 115.255 441.446 114.756C442.091 114.243 442.693 113.832 443.25 113.524C443.411 113.436 443.587 113.465 443.778 113.612C443.983 113.744 444.123 113.891 444.196 114.052C444.225 114.14 444.24 114.228 444.24 114.316C444.24 114.492 444.196 114.705 444.108 114.954C444.02 115.189 443.873 115.416 443.668 115.636C442.949 116.443 442.297 117.403 441.71 118.518C441.123 119.618 440.617 120.777 440.192 121.994C439.781 123.197 439.466 124.377 439.246 125.536C439.026 126.695 438.916 127.736 438.916 128.66C438.916 129.599 439.033 130.339 439.268 130.882C439.517 131.439 439.877 131.718 440.346 131.718C440.669 131.718 441.035 131.637 441.446 131.476C441.857 131.315 442.267 131.109 442.678 130.86C443.089 130.625 443.441 130.391 443.734 130.156C443.763 130.127 443.8 130.112 443.844 130.112C443.903 130.112 443.939 130.134 443.954 130.178C443.983 130.222 444.005 130.259 444.02 130.288V130.354C444.02 130.427 443.998 130.501 443.954 130.574C443.895 130.647 443.756 130.779 443.536 130.97C443.316 131.175 443.037 131.388 442.7 131.608C442.363 131.843 441.981 132.041 441.556 132.202C441.131 132.378 440.683 132.466 440.214 132.466ZM451.674 128.242C451.234 128.242 450.831 128.132 450.464 127.912C450.112 127.677 449.936 127.259 449.936 126.658C449.936 126.438 449.965 126.211 450.024 125.976C450.083 125.727 450.149 125.485 450.222 125.25C449.973 125.499 449.665 125.793 449.298 126.13C448.931 126.453 448.528 126.768 448.088 127.076C447.663 127.384 447.23 127.641 446.79 127.846C446.365 128.037 445.961 128.132 445.58 128.132C445.111 128.132 444.729 127.963 444.436 127.626C444.231 127.406 444.128 127.12 444.128 126.768C444.128 126.343 444.275 125.873 444.568 125.36C444.876 124.832 445.287 124.311 445.8 123.798C446.328 123.285 446.922 122.815 447.582 122.39C448.257 121.965 448.953 121.627 449.672 121.378C450.449 121.099 451.139 120.96 451.74 120.96C452.796 120.96 453.324 121.415 453.324 122.324C453.324 122.383 453.317 122.456 453.302 122.544C453.302 122.617 453.295 122.698 453.28 122.786C453.207 123.079 453.097 123.277 452.95 123.38C452.935 123.395 452.899 123.417 452.84 123.446C452.781 123.461 452.73 123.439 452.686 123.38C452.642 123.307 452.635 123.204 452.664 123.072C452.708 122.911 452.73 122.771 452.73 122.654C452.73 122.243 452.503 122.038 452.048 122.038C451.799 122.038 451.483 122.089 451.102 122.192C450.721 122.295 450.31 122.434 449.87 122.61C449.445 122.771 449.034 122.947 448.638 123.138C448.257 123.329 447.934 123.519 447.67 123.71C446.995 124.194 446.401 124.729 445.888 125.316C445.389 125.888 445.103 126.387 445.03 126.812C445.015 126.856 445.008 126.9 445.008 126.944C445.008 126.988 445.008 127.025 445.008 127.054C445.008 127.274 445.052 127.421 445.14 127.494C445.243 127.567 445.36 127.604 445.492 127.604C445.741 127.604 446.027 127.531 446.35 127.384C446.673 127.223 446.973 127.047 447.252 126.856C447.545 126.665 447.751 126.519 447.868 126.416C448.323 126.02 448.836 125.595 449.408 125.14C449.995 124.671 450.515 124.238 450.97 123.842C451.058 123.798 451.168 123.776 451.3 123.776C451.535 123.776 451.718 123.827 451.85 123.93C451.909 123.974 451.938 124.062 451.938 124.194C451.938 124.37 451.872 124.59 451.74 124.854C451.505 125.353 451.307 125.8 451.146 126.196C450.985 126.577 450.904 126.893 450.904 127.142C450.904 127.509 451.109 127.692 451.52 127.692C451.843 127.692 452.363 127.567 453.082 127.318C453.83 127.039 454.585 126.651 455.348 126.152C456.125 125.653 456.822 125.147 457.438 124.634C457.511 124.561 457.585 124.502 457.658 124.458C457.731 124.414 457.797 124.363 457.856 124.304C457.929 124.26 457.995 124.209 458.054 124.15C458.127 124.091 458.208 124.033 458.296 123.974C458.384 123.945 458.443 123.93 458.472 123.93C458.575 123.93 458.626 123.981 458.626 124.084C458.626 124.172 458.589 124.253 458.516 124.326C458.428 124.443 458.215 124.656 457.878 124.964C457.541 125.272 457.123 125.617 456.624 125.998C456.14 126.379 455.605 126.746 455.018 127.098C454.446 127.45 453.867 127.729 453.28 127.934C453.06 128.007 452.803 128.073 452.51 128.132C452.231 128.205 451.953 128.242 451.674 128.242ZM460.84 131.85C460.165 131.85 459.674 131.681 459.366 131.344C459.058 131.007 458.904 130.574 458.904 130.046C458.904 129.474 459.043 128.829 459.322 128.11C459.615 127.391 459.997 126.665 460.466 125.932C460.95 125.184 461.471 124.495 462.028 123.864C461.955 123.879 461.881 123.886 461.808 123.886C461.735 123.886 461.661 123.886 461.588 123.886C461.089 123.886 460.671 123.769 460.334 123.534C460.187 123.754 459.982 123.996 459.718 124.26C459.454 124.524 459.197 124.759 458.948 124.964C458.332 125.477 457.679 125.969 456.99 126.438C456.301 126.907 455.619 127.296 454.944 127.604C454.269 127.912 453.639 128.088 453.052 128.132C453.008 128.132 452.949 128.125 452.876 128.11C452.788 128.095 452.722 128.066 452.678 128.022C452.619 127.978 452.605 127.934 452.634 127.89C452.663 127.831 452.693 127.795 452.722 127.78C452.766 127.751 452.817 127.729 452.876 127.714C452.935 127.685 453.015 127.663 453.118 127.648C453.617 127.545 454.167 127.34 454.768 127.032C455.369 126.709 455.993 126.328 456.638 125.888C457.298 125.433 457.929 124.957 458.53 124.458C458.779 124.267 459.036 124.055 459.3 123.82C459.564 123.571 459.799 123.343 460.004 123.138C459.857 122.903 459.784 122.654 459.784 122.39C459.784 122.038 459.879 121.686 460.07 121.334C460.261 120.982 460.503 120.659 460.796 120.366C461.089 120.058 461.405 119.816 461.742 119.64C462.079 119.449 462.395 119.354 462.688 119.354C462.849 119.354 462.959 119.391 463.018 119.464C463.091 119.537 463.128 119.618 463.128 119.706C463.128 119.897 463.062 120.043 462.93 120.146C462.827 120.234 462.659 120.395 462.424 120.63C462.204 120.865 461.962 121.129 461.698 121.422C461.434 121.701 461.192 121.979 460.972 122.258C460.767 122.522 460.627 122.742 460.554 122.918C460.598 122.991 460.664 123.057 460.752 123.116C460.855 123.175 461.023 123.204 461.258 123.204C461.61 123.204 461.955 123.131 462.292 122.984C462.629 122.837 462.945 122.661 463.238 122.456C463.326 122.412 463.421 122.39 463.524 122.39C463.685 122.39 463.839 122.427 463.986 122.5C464.147 122.559 464.257 122.625 464.316 122.698C464.331 122.713 464.338 122.742 464.338 122.786C464.338 122.933 464.257 123.109 464.096 123.314C464.008 123.417 463.905 123.527 463.788 123.644C463.685 123.761 463.583 123.879 463.48 123.996C463.069 124.451 462.644 124.964 462.204 125.536C461.779 126.093 461.39 126.665 461.038 127.252C460.686 127.824 460.4 128.367 460.18 128.88C459.96 129.408 459.85 129.863 459.85 130.244C459.85 130.523 459.923 130.743 460.07 130.904C460.231 131.08 460.503 131.168 460.884 131.168C460.957 131.168 461.038 131.161 461.126 131.146C461.229 131.146 461.331 131.139 461.434 131.124C461.801 131.065 462.219 130.933 462.688 130.728C463.157 130.523 463.627 130.281 464.096 130.002C464.565 129.738 464.969 129.496 465.306 129.276C465.335 129.247 465.387 129.232 465.46 129.232C465.563 129.232 465.621 129.276 465.636 129.364V129.408C465.636 129.481 465.592 129.562 465.504 129.65C465.475 129.679 465.423 129.723 465.35 129.782C465.277 129.855 465.181 129.943 465.064 130.046C464.595 130.457 464.074 130.816 463.502 131.124C462.93 131.447 462.329 131.659 461.698 131.762C461.551 131.777 461.405 131.791 461.258 131.806C461.111 131.835 460.972 131.85 460.84 131.85ZM473.256 128.374C472.61 128.374 472.06 128.205 471.606 127.868C471.166 127.516 470.836 127.076 470.616 126.548C470.396 126.005 470.278 125.448 470.264 124.876C469.78 125.287 469.325 125.705 468.9 126.13C468.489 126.541 468.115 126.959 467.778 127.384L467.822 127.538C467.851 127.582 467.866 127.626 467.866 127.67C467.866 127.714 467.866 127.758 467.866 127.802C467.866 127.934 467.829 128.044 467.756 128.132C467.682 128.22 467.587 128.286 467.47 128.33C467.382 128.359 467.301 128.374 467.228 128.374C467.125 128.374 467.015 128.345 466.898 128.286C466.795 128.227 466.722 128.147 466.678 128.044C466.59 127.839 466.546 127.611 466.546 127.362C466.546 126.819 466.692 126.218 466.986 125.558C467.279 124.883 467.594 124.231 467.932 123.6C467.756 123.6 467.668 123.541 467.668 123.424C467.668 123.321 467.734 123.219 467.866 123.116C468.174 122.925 468.357 122.771 468.416 122.654C468.68 122.126 469.024 121.517 469.45 120.828C469.875 120.124 470.366 119.391 470.924 118.628C471.496 117.865 472.097 117.125 472.728 116.406C473.373 115.687 474.04 115.035 474.73 114.448C475.419 113.861 476.108 113.392 476.798 113.04C477.487 112.688 478.147 112.512 478.778 112.512C479.291 112.512 479.65 112.629 479.856 112.864C480.076 113.084 480.186 113.348 480.186 113.656C480.186 113.876 480.142 114.103 480.054 114.338C479.98 114.558 479.885 114.763 479.768 114.954C479.372 115.599 478.851 116.245 478.206 116.89C477.575 117.535 476.871 118.159 476.094 118.76C475.316 119.361 474.517 119.926 473.696 120.454C472.889 120.967 472.112 121.437 471.364 121.862C470.63 122.273 469.978 122.61 469.406 122.874C469.142 123.373 468.87 123.915 468.592 124.502C468.313 125.089 468.093 125.639 467.932 126.152C468.225 125.859 468.577 125.529 468.988 125.162C469.413 124.795 469.86 124.421 470.33 124.04C470.359 123.893 470.388 123.754 470.418 123.622C470.447 123.475 470.491 123.343 470.55 123.226C470.726 122.727 470.953 122.478 471.232 122.478C471.349 122.478 471.452 122.522 471.54 122.61C471.628 122.698 471.701 122.801 471.76 122.918C472.39 122.449 473.014 122.023 473.63 121.642C474.246 121.246 474.81 120.931 475.324 120.696C475.852 120.461 476.277 120.344 476.6 120.344C477.069 120.344 477.304 120.535 477.304 120.916C477.304 121.107 477.223 121.283 477.062 121.444C476.9 121.605 476.673 121.708 476.38 121.752C475.588 121.869 474.788 122.111 473.982 122.478C473.19 122.83 472.42 123.263 471.672 123.776C471.496 124.231 471.408 124.722 471.408 125.25C471.408 125.881 471.562 126.438 471.87 126.922C472.178 127.391 472.691 127.626 473.41 127.626C473.894 127.626 474.414 127.531 474.972 127.34C475.529 127.135 476.086 126.878 476.644 126.57C477.216 126.262 477.751 125.932 478.25 125.58C478.763 125.228 479.21 124.898 479.592 124.59C479.665 124.517 479.738 124.458 479.812 124.414C479.9 124.355 479.973 124.297 480.032 124.238C480.134 124.165 480.281 124.047 480.472 123.886C480.516 123.871 480.567 123.864 480.626 123.864C480.743 123.864 480.802 123.923 480.802 124.04C480.802 124.099 480.765 124.179 480.692 124.282C480.604 124.385 480.406 124.575 480.098 124.854C479.79 125.133 479.408 125.448 478.954 125.8C478.514 126.137 478.037 126.475 477.524 126.812C477.01 127.149 476.497 127.443 475.984 127.692C475.676 127.839 475.272 127.985 474.774 128.132C474.275 128.293 473.769 128.374 473.256 128.374ZM469.824 122.016C470.924 121.4 472.053 120.733 473.212 120.014C474.37 119.295 475.456 118.503 476.468 117.638C477.494 116.758 478.33 115.775 478.976 114.69C479.049 114.558 479.122 114.419 479.196 114.272C479.284 114.111 479.357 113.957 479.416 113.81C479.43 113.751 479.438 113.7 479.438 113.656C479.452 113.612 479.46 113.575 479.46 113.546C479.46 113.355 479.342 113.26 479.108 113.26C478.829 113.26 478.462 113.363 478.008 113.568C477.568 113.773 477.091 114.045 476.578 114.382C476.079 114.705 475.595 115.057 475.126 115.438C474.671 115.819 474.29 116.179 473.982 116.516C473.512 117.044 472.999 117.645 472.442 118.32C471.899 118.98 471.393 119.633 470.924 120.278C470.454 120.923 470.088 121.503 469.824 122.016ZM483.163 128.044C482.84 128.044 482.517 128 482.195 127.912C481.872 127.809 481.571 127.648 481.293 127.428C481.029 127.223 480.838 126.995 480.721 126.746C480.603 126.497 480.545 126.233 480.545 125.954C480.545 125.455 480.706 124.957 481.029 124.458C481.366 123.959 481.777 123.497 482.261 123.072C482.745 122.632 483.214 122.28 483.669 122.016C483.845 121.913 484.057 121.84 484.307 121.796C484.571 121.737 484.82 121.708 485.055 121.708C485.143 121.708 485.231 121.708 485.319 121.708C485.407 121.708 485.48 121.723 485.539 121.752C485.92 121.855 486.199 122.016 486.375 122.236C486.565 122.441 486.661 122.683 486.661 122.962C486.661 123.373 486.521 123.717 486.243 123.996C485.979 124.26 485.641 124.48 485.231 124.656C484.835 124.817 484.431 124.942 484.021 125.03C483.61 125.118 483.258 125.177 482.965 125.206C482.862 125.221 482.759 125.228 482.657 125.228C482.569 125.228 482.473 125.228 482.371 125.228C482.268 125.228 482.158 125.228 482.041 125.228C481.938 125.213 481.85 125.199 481.777 125.184C481.674 125.345 481.586 125.507 481.513 125.668C481.439 125.829 481.388 125.983 481.359 126.13C481.344 126.174 481.337 126.218 481.337 126.262C481.337 126.306 481.337 126.35 481.337 126.394C481.337 126.673 481.454 126.922 481.689 127.142C481.923 127.347 482.334 127.45 482.921 127.45C483.507 127.45 484.123 127.325 484.769 127.076C485.414 126.827 486.052 126.504 486.683 126.108C487.328 125.697 487.937 125.272 488.509 124.832C489.095 124.377 489.616 123.952 490.071 123.556C490.144 123.512 490.203 123.49 490.247 123.49C490.379 123.49 490.445 123.549 490.445 123.666C490.445 123.739 490.415 123.813 490.357 123.886C490.195 124.121 489.917 124.407 489.521 124.744C489.139 125.067 488.714 125.404 488.245 125.756C487.79 126.093 487.372 126.394 486.991 126.658C486.609 126.907 486.345 127.076 486.199 127.164C485.759 127.384 485.275 127.589 484.747 127.78C484.219 127.956 483.691 128.044 483.163 128.044ZM482.085 124.766C482.363 124.795 482.679 124.766 483.031 124.678C483.251 124.634 483.522 124.561 483.845 124.458C484.167 124.355 484.49 124.223 484.813 124.062C485.135 123.901 485.407 123.71 485.627 123.49C485.847 123.27 485.957 123.028 485.957 122.764C485.957 122.573 485.817 122.478 485.539 122.478C485.436 122.478 485.304 122.5 485.143 122.544C484.981 122.573 484.798 122.639 484.593 122.742C484.182 122.933 483.742 123.211 483.273 123.578C482.818 123.945 482.422 124.341 482.085 124.766ZM484.197 120.52C484.05 120.52 483.977 120.461 483.977 120.344C483.977 120.271 484.021 120.205 484.109 120.146C484.197 120.073 484.299 120.007 484.417 119.948C484.798 119.743 485.165 119.515 485.517 119.266C485.869 119.017 486.162 118.804 486.397 118.628L486.441 118.584C486.558 118.555 486.683 118.584 486.815 118.672C486.961 118.745 487.071 118.841 487.145 118.958C487.218 119.061 487.218 119.156 487.145 119.244C486.881 119.391 486.507 119.581 486.023 119.816C485.553 120.036 485.143 120.219 484.791 120.366C484.585 120.469 484.387 120.52 484.197 120.52ZM490.731 128.506C490.232 128.506 489.778 128.403 489.367 128.198C488.971 128.007 488.773 127.619 488.773 127.032C488.773 126.636 488.92 126.189 489.213 125.69C489.521 125.177 489.917 124.634 490.401 124.062C490.9 123.49 491.435 122.918 492.007 122.346C492.594 121.774 493.166 121.239 493.723 120.74C493.576 120.711 493.437 120.681 493.305 120.652C493.188 120.623 493.07 120.593 492.953 120.564C492.293 120.403 491.501 120.212 490.577 119.992C489.668 119.757 488.692 119.537 487.651 119.332C486.624 119.112 485.561 118.929 484.461 118.782C483.361 118.621 482.29 118.54 481.249 118.54C479.885 118.54 478.646 118.716 477.531 119.068C476.416 119.42 475.566 120.043 474.979 120.938C474.935 120.997 474.891 121.048 474.847 121.092C474.803 121.136 474.759 121.165 474.715 121.18C474.7 121.18 474.693 121.187 474.693 121.202C474.678 121.202 474.664 121.202 474.649 121.202C474.561 121.202 474.502 121.151 474.473 121.048C474.458 121.019 474.451 120.975 474.451 120.916C474.451 120.725 474.502 120.571 474.605 120.454C475.074 119.765 475.668 119.222 476.387 118.826C477.091 118.43 477.883 118.151 478.763 117.99C479.628 117.814 480.53 117.726 481.469 117.726C482.422 117.726 483.383 117.792 484.351 117.924C485.319 118.041 486.25 118.195 487.145 118.386C488.04 118.562 488.861 118.753 489.609 118.958C490.372 119.149 491.01 119.317 491.523 119.464C491.875 119.552 492.3 119.655 492.799 119.772C493.298 119.889 493.84 119.999 494.427 120.102L495.725 118.98C495.666 118.819 495.725 118.621 495.901 118.386C496.092 118.151 496.356 117.961 496.693 117.814C496.722 117.799 496.788 117.792 496.891 117.792C497.038 117.792 497.206 117.814 497.397 117.858C497.588 117.902 497.756 117.968 497.903 118.056C498.05 118.144 498.123 118.254 498.123 118.386C498.123 118.445 498.072 118.525 497.969 118.628C497.866 118.731 497.749 118.826 497.617 118.914C497.5 119.002 497.419 119.061 497.375 119.09C497.214 119.178 496.986 119.332 496.693 119.552C496.414 119.757 496.084 120.007 495.703 120.3C496.759 120.461 497.764 120.542 498.717 120.542C499.45 120.542 500.103 120.483 500.675 120.366C501.247 120.234 501.702 120.014 502.039 119.706C502.376 119.398 502.545 118.987 502.545 118.474C502.545 118.415 502.545 118.364 502.545 118.32C502.545 118.261 502.538 118.203 502.523 118.144V118.122C502.523 117.975 502.604 117.902 502.765 117.902C502.882 117.902 502.963 117.968 503.007 118.1C503.022 118.188 503.029 118.276 503.029 118.364C503.044 118.452 503.051 118.54 503.051 118.628C503.051 119.332 502.846 119.889 502.435 120.3C502.024 120.696 501.489 120.982 500.829 121.158C500.169 121.319 499.458 121.4 498.695 121.4C498.064 121.4 497.419 121.356 496.759 121.268C496.114 121.18 495.49 121.085 494.889 120.982C494.302 121.466 493.708 121.994 493.107 122.566C492.506 123.138 491.948 123.703 491.435 124.26C490.922 124.817 490.504 125.331 490.181 125.8C489.873 126.269 489.719 126.651 489.719 126.944C489.719 127.516 490.181 127.802 491.105 127.802C491.794 127.802 492.601 127.633 493.525 127.296C493.613 127.267 493.701 127.237 493.789 127.208C493.892 127.164 493.994 127.12 494.097 127.076C494.772 126.783 495.439 126.416 496.099 125.976C496.759 125.521 497.36 125.067 497.903 124.612C497.976 124.539 498.05 124.48 498.123 124.436C498.196 124.377 498.262 124.326 498.321 124.282C498.394 124.223 498.46 124.172 498.519 124.128C498.592 124.069 498.673 124.003 498.761 123.93C498.849 123.901 498.908 123.886 498.937 123.886C499.04 123.886 499.091 123.937 499.091 124.04C499.091 124.143 499.054 124.231 498.981 124.304C498.893 124.421 498.68 124.641 498.343 124.964C498.006 125.272 497.588 125.617 497.089 125.998C496.59 126.379 496.048 126.746 495.461 127.098C494.889 127.45 494.31 127.729 493.723 127.934C493.43 128.037 492.997 128.154 492.425 128.286C491.853 128.433 491.288 128.506 490.731 128.506ZM505.273 128.242C504.833 128.242 504.43 128.132 504.063 127.912C503.711 127.677 503.535 127.259 503.535 126.658C503.535 126.438 503.564 126.211 503.623 125.976C503.682 125.727 503.748 125.485 503.821 125.25C503.572 125.499 503.264 125.793 502.897 126.13C502.53 126.453 502.127 126.768 501.687 127.076C501.262 127.384 500.829 127.641 500.389 127.846C499.964 128.037 499.56 128.132 499.179 128.132C498.71 128.132 498.328 127.963 498.035 127.626C497.83 127.406 497.727 127.12 497.727 126.768C497.727 126.343 497.874 125.873 498.167 125.36C498.475 124.832 498.886 124.311 499.399 123.798C499.927 123.285 500.521 122.815 501.181 122.39C501.856 121.965 502.552 121.627 503.271 121.378C504.048 121.099 504.738 120.96 505.339 120.96C506.395 120.96 506.923 121.415 506.923 122.324C506.923 122.383 506.916 122.456 506.901 122.544C506.901 122.617 506.894 122.698 506.879 122.786C506.806 123.079 506.696 123.277 506.549 123.38C506.534 123.395 506.498 123.417 506.439 123.446C506.38 123.461 506.329 123.439 506.285 123.38C506.241 123.307 506.234 123.204 506.263 123.072C506.307 122.911 506.329 122.771 506.329 122.654C506.329 122.243 506.102 122.038 505.647 122.038C505.398 122.038 505.082 122.089 504.701 122.192C504.32 122.295 503.909 122.434 503.469 122.61C503.044 122.771 502.633 122.947 502.237 123.138C501.856 123.329 501.533 123.519 501.269 123.71C500.594 124.194 500 124.729 499.487 125.316C498.988 125.888 498.702 126.387 498.629 126.812C498.614 126.856 498.607 126.9 498.607 126.944C498.607 126.988 498.607 127.025 498.607 127.054C498.607 127.274 498.651 127.421 498.739 127.494C498.842 127.567 498.959 127.604 499.091 127.604C499.34 127.604 499.626 127.531 499.949 127.384C500.272 127.223 500.572 127.047 500.851 126.856C501.144 126.665 501.35 126.519 501.467 126.416C501.922 126.02 502.435 125.595 503.007 125.14C503.594 124.671 504.114 124.238 504.569 123.842C504.657 123.798 504.767 123.776 504.899 123.776C505.134 123.776 505.317 123.827 505.449 123.93C505.508 123.974 505.537 124.062 505.537 124.194C505.537 124.37 505.471 124.59 505.339 124.854C505.104 125.353 504.906 125.8 504.745 126.196C504.584 126.577 504.503 126.893 504.503 127.142C504.503 127.509 504.708 127.692 505.119 127.692C505.442 127.692 505.962 127.567 506.681 127.318C507.429 127.039 508.184 126.651 508.947 126.152C509.724 125.653 510.421 125.147 511.037 124.634C511.11 124.561 511.184 124.502 511.257 124.458C511.33 124.414 511.396 124.363 511.455 124.304C511.528 124.26 511.594 124.209 511.653 124.15C511.726 124.091 511.807 124.033 511.895 123.974C511.983 123.945 512.042 123.93 512.071 123.93C512.174 123.93 512.225 123.981 512.225 124.084C512.225 124.172 512.188 124.253 512.115 124.326C512.027 124.443 511.814 124.656 511.477 124.964C511.14 125.272 510.722 125.617 510.223 125.998C509.739 126.379 509.204 126.746 508.617 127.098C508.045 127.45 507.466 127.729 506.879 127.934C506.659 128.007 506.402 128.073 506.109 128.132C505.83 128.205 505.552 128.242 505.273 128.242ZM523.803 130.882C522.747 130.882 521.771 130.633 520.877 130.134C519.997 129.635 519.256 128.99 518.655 128.198C518.053 127.406 517.65 126.563 517.445 125.668C516.902 125.58 516.411 125.433 515.971 125.228C515.516 125.023 515.274 124.781 515.245 124.502C515.245 124.341 515.296 124.209 515.399 124.106C515.487 123.989 515.67 123.93 515.949 123.93C516.154 123.93 516.381 123.959 516.631 124.018C516.939 124.077 517.173 124.187 517.335 124.348C517.511 124.509 517.628 124.671 517.687 124.832C518.332 124.905 519.183 124.986 520.239 125.074C521.295 125.147 522.446 125.199 523.693 125.228C523.605 125.037 523.531 124.847 523.473 124.656C523.414 124.451 523.355 124.253 523.297 124.062C522.974 123.109 522.666 122.126 522.373 121.114C522.079 120.102 521.955 119.141 521.999 118.232C522.043 117.411 522.314 116.721 522.813 116.164C523.311 115.592 523.942 115.137 524.705 114.8C525.482 114.448 526.303 114.199 527.169 114.052C528.034 113.891 528.848 113.81 529.611 113.81C530.461 113.81 531.297 113.883 532.119 114.03C532.955 114.162 533.703 114.367 534.363 114.646C535.037 114.925 535.573 115.284 535.969 115.724C536.365 116.149 536.563 116.648 536.563 117.22C536.563 117.631 536.387 118.019 536.035 118.386C535.697 118.738 535.272 119.046 534.759 119.31C534.245 119.574 533.71 119.779 533.153 119.926C532.61 120.073 532.133 120.146 531.723 120.146C531.605 120.146 531.51 120.109 531.437 120.036C531.378 119.963 531.349 119.882 531.349 119.794C531.349 119.721 531.378 119.647 531.437 119.574C531.51 119.501 531.605 119.464 531.723 119.464C532.133 119.464 532.573 119.413 533.043 119.31C533.527 119.193 533.974 119.039 534.385 118.848C534.81 118.657 535.155 118.43 535.419 118.166C535.697 117.887 535.837 117.594 535.837 117.286C535.837 116.831 535.639 116.45 535.243 116.142C534.847 115.834 534.333 115.592 533.703 115.416C533.087 115.24 532.427 115.115 531.723 115.042C531.019 114.969 530.359 114.932 529.743 114.932C528.349 114.932 527.213 115.049 526.333 115.284C525.453 115.519 524.763 115.827 524.265 116.208C523.781 116.575 523.429 116.963 523.209 117.374C522.989 117.77 522.857 118.144 522.813 118.496C522.769 118.848 522.747 119.112 522.747 119.288C522.747 120.095 522.864 120.901 523.099 121.708C523.333 122.5 523.59 123.263 523.869 123.996C523.927 124.143 524.001 124.326 524.089 124.546C524.177 124.751 524.265 124.979 524.353 125.228C526.289 125.228 528.056 125.14 529.655 124.964C531.268 124.788 532.566 124.451 533.549 123.952C533.607 123.923 533.666 123.908 533.725 123.908C533.857 123.908 533.893 123.981 533.835 124.128C533.82 124.187 533.791 124.245 533.747 124.304C533.703 124.348 533.651 124.392 533.593 124.436C533.123 124.759 532.419 125.03 531.481 125.25C530.557 125.47 529.501 125.639 528.313 125.756C527.139 125.873 525.929 125.954 524.683 125.998C524.903 126.453 525.13 126.988 525.365 127.604C525.599 128.205 525.717 128.763 525.717 129.276C525.717 129.731 525.577 130.112 525.299 130.42C525.02 130.728 524.521 130.882 523.803 130.882ZM522.901 129.804C522.959 129.819 523.011 129.826 523.055 129.826C523.113 129.826 523.165 129.826 523.209 129.826C524.059 129.826 524.485 129.43 524.485 128.638C524.485 128.257 524.433 127.839 524.331 127.384C524.243 126.929 524.118 126.475 523.957 126.02C522.842 126.035 521.771 126.013 520.745 125.954C519.718 125.895 518.801 125.807 517.995 125.69C518.405 126.629 518.897 127.391 519.469 127.978C520.041 128.55 520.627 128.983 521.229 129.276C521.83 129.569 522.387 129.745 522.901 129.804ZM531.019 112.424C530.916 112.527 530.821 112.578 530.733 112.578C530.527 112.578 530.256 112.248 529.919 111.588C529.816 111.412 529.721 111.236 529.633 111.06C529.559 110.884 529.508 110.737 529.479 110.62C529.449 110.532 529.435 110.444 529.435 110.356V110.312C529.479 110.195 529.545 110.121 529.633 110.092C529.735 110.048 529.816 110.07 529.875 110.158C530.007 110.349 530.183 110.605 530.403 110.928C530.623 111.236 530.784 111.456 530.887 111.588C530.96 111.544 531.048 111.493 531.151 111.434C531.253 111.375 531.371 111.309 531.503 111.236C531.62 111.163 531.752 111.089 531.899 111.016C532.045 110.928 532.199 110.84 532.361 110.752C532.771 110.503 533.109 110.334 533.373 110.246C533.637 110.158 533.805 110.107 533.879 110.092H533.945C534.077 110.092 534.143 110.143 534.143 110.246C534.143 110.363 534.047 110.495 533.857 110.642C533.563 110.833 533.138 111.104 532.581 111.456C532.038 111.808 531.517 112.131 531.019 112.424ZM536.56 128.396C536.281 128.396 536.01 128.374 535.746 128.33C535.497 128.286 535.269 128.213 535.064 128.11C534.595 127.875 534.279 127.538 534.118 127.098C533.971 126.658 533.898 126.233 533.898 125.822C533.898 125.631 533.905 125.455 533.92 125.294C533.949 125.133 533.971 124.979 533.986 124.832C533.942 124.847 533.905 124.854 533.876 124.854C533.847 124.839 533.817 124.832 533.788 124.832C533.656 124.803 533.59 124.744 533.59 124.656C533.59 124.583 533.627 124.517 533.7 124.458C533.744 124.429 533.81 124.377 533.898 124.304C534.001 124.216 534.081 124.143 534.14 124.084C534.257 123.688 534.433 123.182 534.668 122.566C534.903 121.95 535.233 121.283 535.658 120.564C535.981 120.021 536.384 119.383 536.868 118.65C537.352 117.917 537.902 117.169 538.518 116.406C539.134 115.629 539.787 114.91 540.476 114.25C541.165 113.575 541.869 113.033 542.588 112.622C543.321 112.211 544.047 112.006 544.766 112.006C545.147 112.006 545.426 112.116 545.602 112.336C545.778 112.541 545.866 112.82 545.866 113.172C545.866 113.671 545.683 114.301 545.316 115.064C544.935 115.856 544.458 116.604 543.886 117.308C543.314 118.012 542.727 118.65 542.126 119.222C541.525 119.794 540.989 120.285 540.52 120.696C539.933 121.195 539.361 121.649 538.804 122.06C538.261 122.456 537.755 122.801 537.286 123.094C536.831 123.387 536.413 123.644 536.032 123.864C535.665 124.069 535.379 124.238 535.174 124.37C535.042 124.766 534.976 125.221 534.976 125.734C534.976 126.277 535.093 126.753 535.328 127.164C535.577 127.575 536.017 127.78 536.648 127.78C537.103 127.78 537.579 127.692 538.078 127.516C538.591 127.325 539.053 127.127 539.464 126.922C540.08 126.614 540.674 126.277 541.246 125.91C541.818 125.529 542.324 125.177 542.764 124.854C543.204 124.517 543.519 124.26 543.71 124.084C543.769 124.025 543.82 123.996 543.864 123.996C543.908 123.981 543.937 123.974 543.952 123.974C544.025 124.003 544.062 124.062 544.062 124.15C544.062 124.282 543.989 124.421 543.842 124.568C543.241 125.169 542.581 125.749 541.862 126.306C541.143 126.863 540.381 127.325 539.574 127.692C539.09 127.912 538.584 128.081 538.056 128.198C537.543 128.33 537.044 128.396 536.56 128.396ZM535.482 123.468C535.761 123.307 536.157 123.057 536.67 122.72C537.198 122.383 537.77 121.994 538.386 121.554C539.002 121.099 539.581 120.63 540.124 120.146C540.403 119.897 540.74 119.581 541.136 119.2C541.547 118.804 541.965 118.371 542.39 117.902C542.83 117.418 543.233 116.919 543.6 116.406C543.981 115.878 544.289 115.357 544.524 114.844C544.759 114.316 544.876 113.825 544.876 113.37C544.876 113.165 544.832 113.025 544.744 112.952C544.671 112.864 544.568 112.82 544.436 112.82C544.172 112.82 543.82 112.952 543.38 113.216C542.955 113.465 542.493 113.795 541.994 114.206C541.495 114.617 541.011 115.071 540.542 115.57C539.823 116.333 539.127 117.198 538.452 118.166C537.792 119.119 537.205 120.065 536.692 121.004C536.179 121.928 535.775 122.749 535.482 123.468ZM550.623 128.242C550.183 128.242 549.78 128.132 549.413 127.912C549.061 127.677 548.885 127.259 548.885 126.658C548.885 126.438 548.915 126.211 548.973 125.976C549.032 125.727 549.098 125.485 549.171 125.25C548.922 125.499 548.614 125.793 548.247 126.13C547.881 126.453 547.477 126.768 547.037 127.076C546.612 127.384 546.179 127.641 545.739 127.846C545.314 128.037 544.911 128.132 544.529 128.132C544.06 128.132 543.679 127.963 543.385 127.626C543.18 127.406 543.077 127.12 543.077 126.768C543.077 126.343 543.224 125.873 543.517 125.36C543.825 124.832 544.236 124.311 544.749 123.798C545.277 123.285 545.871 122.815 546.531 122.39C547.206 121.965 547.903 121.627 548.621 121.378C549.399 121.099 550.088 120.96 550.689 120.96C551.745 120.96 552.273 121.415 552.273 122.324C552.273 122.383 552.266 122.456 552.251 122.544C552.251 122.617 552.244 122.698 552.229 122.786C552.156 123.079 552.046 123.277 551.899 123.38C551.885 123.395 551.848 123.417 551.789 123.446C551.731 123.461 551.679 123.439 551.635 123.38C551.591 123.307 551.584 123.204 551.613 123.072C551.657 122.911 551.679 122.771 551.679 122.654C551.679 122.243 551.452 122.038 550.997 122.038C550.748 122.038 550.433 122.089 550.051 122.192C549.67 122.295 549.259 122.434 548.819 122.61C548.394 122.771 547.983 122.947 547.587 123.138C547.206 123.329 546.883 123.519 546.619 123.71C545.945 124.194 545.351 124.729 544.837 125.316C544.339 125.888 544.053 126.387 543.979 126.812C543.965 126.856 543.957 126.9 543.957 126.944C543.957 126.988 543.957 127.025 543.957 127.054C543.957 127.274 544.001 127.421 544.089 127.494C544.192 127.567 544.309 127.604 544.441 127.604C544.691 127.604 544.977 127.531 545.299 127.384C545.622 127.223 545.923 127.047 546.201 126.856C546.495 126.665 546.7 126.519 546.817 126.416C547.272 126.02 547.785 125.595 548.357 125.14C548.944 124.671 549.465 124.238 549.919 123.842C550.007 123.798 550.117 123.776 550.249 123.776C550.484 123.776 550.667 123.827 550.799 123.93C550.858 123.974 550.887 124.062 550.887 124.194C550.887 124.37 550.821 124.59 550.689 124.854C550.455 125.353 550.257 125.8 550.095 126.196C549.934 126.577 549.853 126.893 549.853 127.142C549.853 127.509 550.059 127.692 550.469 127.692C550.792 127.692 551.313 127.567 552.031 127.318C552.779 127.039 553.535 126.651 554.297 126.152C555.075 125.653 555.771 125.147 556.387 124.634C556.461 124.561 556.534 124.502 556.607 124.458C556.681 124.414 556.747 124.363 556.805 124.304C556.879 124.26 556.945 124.209 557.003 124.15C557.077 124.091 557.157 124.033 557.245 123.974C557.333 123.945 557.392 123.93 557.421 123.93C557.524 123.93 557.575 123.981 557.575 124.084C557.575 124.172 557.539 124.253 557.465 124.326C557.377 124.443 557.165 124.656 556.827 124.964C556.49 125.272 556.072 125.617 555.573 125.998C555.089 126.379 554.554 126.746 553.967 127.098C553.395 127.45 552.816 127.729 552.229 127.934C552.009 128.007 551.753 128.073 551.459 128.132C551.181 128.205 550.902 128.242 550.623 128.242ZM555.829 128.682C555.58 128.682 555.455 128.565 555.455 128.33C555.455 128.183 555.492 128.022 555.565 127.846C555.653 127.67 555.756 127.479 555.873 127.274C556.064 126.937 556.277 126.585 556.511 126.218C556.761 125.851 556.973 125.551 557.149 125.316C557.296 125.125 557.501 124.854 557.765 124.502C558.029 124.15 558.279 123.776 558.513 123.38C558.836 122.852 558.997 122.412 558.997 122.06C558.997 121.869 558.939 121.723 558.821 121.62C558.763 121.561 558.704 121.495 558.645 121.422C558.587 121.334 558.557 121.261 558.557 121.202C558.557 121.055 558.616 120.982 558.733 120.982C558.851 120.982 558.961 121.026 559.063 121.114C559.166 121.173 559.276 121.253 559.393 121.356C559.525 121.459 559.643 121.576 559.745 121.708C559.789 121.767 559.833 121.825 559.877 121.884C559.936 121.928 559.98 121.987 560.009 122.06C560.053 122.133 560.09 122.214 560.119 122.302C560.149 122.375 560.163 122.463 560.163 122.566C560.163 122.771 560.075 123.021 559.899 123.314C559.635 123.769 559.32 124.194 558.953 124.59C558.601 124.971 558.257 125.353 557.919 125.734C557.875 125.793 557.824 125.851 557.765 125.91C557.721 125.954 557.677 126.005 557.633 126.064C558.205 125.536 558.821 124.993 559.481 124.436C560.156 123.864 560.743 123.417 561.241 123.094C561.403 122.991 561.615 122.896 561.879 122.808C562.143 122.705 562.393 122.654 562.627 122.654C562.847 122.654 563.038 122.72 563.199 122.852C563.375 122.969 563.463 123.197 563.463 123.534C563.463 123.827 563.405 124.165 563.287 124.546C563.17 124.913 563.053 125.25 562.935 125.558C562.833 125.793 562.752 126.02 562.693 126.24C562.635 126.445 562.605 126.629 562.605 126.79C562.605 127.303 562.884 127.56 563.441 127.56C563.588 127.56 563.757 127.545 563.947 127.516C564.153 127.472 564.373 127.406 564.607 127.318C565.355 127.039 566.111 126.651 566.873 126.152C567.651 125.653 568.347 125.147 568.963 124.634C569.037 124.575 569.11 124.524 569.183 124.48C569.257 124.421 569.323 124.37 569.381 124.326C569.455 124.267 569.521 124.216 569.579 124.172C569.653 124.113 569.733 124.047 569.821 123.974C569.909 123.945 569.968 123.93 569.997 123.93C570.085 123.93 570.129 123.981 570.129 124.084C570.129 124.187 570.1 124.275 570.041 124.348C569.953 124.465 569.741 124.678 569.403 124.986C569.066 125.294 568.648 125.639 568.149 126.02C567.665 126.401 567.13 126.768 566.543 127.12C565.971 127.472 565.392 127.751 564.805 127.956C564.277 128.132 563.727 128.22 563.155 128.22C562.715 128.22 562.319 128.117 561.967 127.912C561.615 127.707 561.439 127.355 561.439 126.856C561.439 126.563 561.513 126.218 561.659 125.822C561.762 125.558 561.872 125.287 561.989 125.008C562.121 124.729 562.202 124.451 562.231 124.172C562.246 124.113 562.253 124.062 562.253 124.018C562.253 123.959 562.253 123.915 562.253 123.886C562.253 123.71 562.224 123.6 562.165 123.556C562.121 123.512 562.07 123.49 562.011 123.49C561.865 123.49 561.681 123.549 561.461 123.666C561.256 123.769 561.065 123.879 560.889 123.996C560.728 124.099 560.471 124.304 560.119 124.612C559.782 124.905 559.408 125.243 558.997 125.624C558.601 125.991 558.22 126.343 557.853 126.68C557.619 126.9 557.391 127.127 557.171 127.362C556.966 127.582 556.775 127.787 556.599 127.978C556.409 128.183 556.247 128.352 556.115 128.484C555.983 128.616 555.888 128.682 555.829 128.682ZM572.598 128.286C572.26 128.286 571.938 128.249 571.63 128.176C571.322 128.103 571.043 127.993 570.794 127.846C570.148 127.435 569.826 126.893 569.826 126.218C569.826 125.69 570.002 125.155 570.354 124.612C570.72 124.055 571.19 123.527 571.762 123.028C572.334 122.529 572.935 122.119 573.566 121.796C573.962 121.591 574.35 121.444 574.732 121.356C575.113 121.268 575.458 121.224 575.766 121.224C576.103 121.224 576.404 121.275 576.668 121.378C576.932 121.481 577.078 121.635 577.108 121.84C577.166 122.265 577.049 122.661 576.756 123.028C576.462 123.38 576.11 123.695 575.7 123.974C575.289 124.253 574.93 124.48 574.622 124.656C574.578 124.671 574.534 124.693 574.49 124.722C574.46 124.737 574.431 124.744 574.402 124.744C574.299 124.744 574.24 124.715 574.226 124.656C574.211 124.583 574.211 124.517 574.226 124.458C574.284 124.267 574.468 124.091 574.776 123.93C574.966 123.827 575.164 123.695 575.37 123.534C575.575 123.358 575.751 123.175 575.898 122.984C576.044 122.779 576.118 122.61 576.118 122.478C576.118 122.405 576.081 122.339 576.008 122.28C575.934 122.221 575.773 122.192 575.524 122.192C575.23 122.192 574.871 122.287 574.446 122.478C574.02 122.669 573.58 122.925 573.126 123.248C572.671 123.556 572.246 123.901 571.85 124.282C571.468 124.663 571.153 125.045 570.904 125.426C570.654 125.807 570.53 126.159 570.53 126.482C570.53 126.907 570.735 127.215 571.146 127.406C571.556 127.582 572.018 127.67 572.532 127.67C572.708 127.67 572.876 127.663 573.038 127.648C573.199 127.633 573.353 127.611 573.5 127.582C574.233 127.435 574.981 127.171 575.744 126.79C576.521 126.409 577.269 125.969 577.988 125.47C578.706 124.971 579.352 124.473 579.924 123.974C580.012 123.945 580.07 123.93 580.1 123.93C580.202 123.93 580.254 123.981 580.254 124.084C580.254 124.157 580.224 124.231 580.166 124.304C580.063 124.48 579.85 124.707 579.528 124.986C579.22 125.265 578.868 125.551 578.472 125.844C578.076 126.123 577.687 126.394 577.306 126.658C576.939 126.907 576.631 127.098 576.382 127.23C575.854 127.523 575.252 127.773 574.578 127.978C573.903 128.183 573.243 128.286 572.598 128.286ZM586.543 128.242C586.103 128.242 585.699 128.132 585.333 127.912C584.981 127.677 584.805 127.259 584.805 126.658C584.805 126.438 584.834 126.211 584.893 125.976C584.951 125.727 585.017 125.485 585.091 125.25C584.841 125.499 584.533 125.793 584.167 126.13C583.8 126.453 583.397 126.768 582.957 127.076C582.531 127.384 582.099 127.641 581.659 127.846C581.233 128.037 580.83 128.132 580.449 128.132C579.979 128.132 579.598 127.963 579.305 127.626C579.099 127.406 578.997 127.12 578.997 126.768C578.997 126.343 579.143 125.873 579.437 125.36C579.745 124.832 580.155 124.311 580.669 123.798C581.197 123.285 581.791 122.815 582.451 122.39C583.125 121.965 583.822 121.627 584.541 121.378C585.318 121.099 586.007 120.96 586.609 120.96C587.665 120.96 588.193 121.415 588.193 122.324C588.193 122.383 588.185 122.456 588.171 122.544C588.171 122.617 588.163 122.698 588.149 122.786C588.075 123.079 587.965 123.277 587.819 123.38C587.804 123.395 587.767 123.417 587.709 123.446C587.65 123.461 587.599 123.439 587.555 123.38C587.511 123.307 587.503 123.204 587.533 123.072C587.577 122.911 587.599 122.771 587.599 122.654C587.599 122.243 587.371 122.038 586.917 122.038C586.667 122.038 586.352 122.089 585.971 122.192C585.589 122.295 585.179 122.434 584.739 122.61C584.313 122.771 583.903 122.947 583.507 123.138C583.125 123.329 582.803 123.519 582.539 123.71C581.864 124.194 581.27 124.729 580.757 125.316C580.258 125.888 579.972 126.387 579.899 126.812C579.884 126.856 579.877 126.9 579.877 126.944C579.877 126.988 579.877 127.025 579.877 127.054C579.877 127.274 579.921 127.421 580.009 127.494C580.111 127.567 580.229 127.604 580.361 127.604C580.61 127.604 580.896 127.531 581.219 127.384C581.541 127.223 581.842 127.047 582.121 126.856C582.414 126.665 582.619 126.519 582.737 126.416C583.191 126.02 583.705 125.595 584.277 125.14C584.863 124.671 585.384 124.238 585.839 123.842C585.927 123.798 586.037 123.776 586.169 123.776C586.403 123.776 586.587 123.827 586.719 123.93C586.777 123.974 586.807 124.062 586.807 124.194C586.807 124.37 586.741 124.59 586.609 124.854C586.374 125.353 586.176 125.8 586.015 126.196C585.853 126.577 585.773 126.893 585.773 127.142C585.773 127.509 585.978 127.692 586.389 127.692C586.711 127.692 587.232 127.567 587.951 127.318C588.699 127.039 589.454 126.651 590.217 126.152C590.994 125.653 591.691 125.147 592.307 124.634C592.38 124.561 592.453 124.502 592.527 124.458C592.6 124.414 592.666 124.363 592.725 124.304C592.798 124.26 592.864 124.209 592.923 124.15C592.996 124.091 593.077 124.033 593.165 123.974C593.253 123.945 593.311 123.93 593.341 123.93C593.443 123.93 593.495 123.981 593.495 124.084C593.495 124.172 593.458 124.253 593.385 124.326C593.297 124.443 593.084 124.656 592.747 124.964C592.409 125.272 591.991 125.617 591.493 125.998C591.009 126.379 590.473 126.746 589.887 127.098C589.315 127.45 588.735 127.729 588.149 127.934C587.929 128.007 587.672 128.073 587.379 128.132C587.1 128.205 586.821 128.242 586.543 128.242ZM595.709 131.85C595.034 131.85 594.543 131.681 594.235 131.344C593.927 131.007 593.773 130.574 593.773 130.046C593.773 129.474 593.912 128.829 594.191 128.11C594.484 127.391 594.865 126.665 595.335 125.932C595.819 125.184 596.339 124.495 596.897 123.864C596.823 123.879 596.75 123.886 596.677 123.886C596.603 123.886 596.53 123.886 596.457 123.886C595.958 123.886 595.54 123.769 595.203 123.534C595.056 123.754 594.851 123.996 594.587 124.26C594.323 124.524 594.066 124.759 593.817 124.964C593.201 125.477 592.548 125.969 591.859 126.438C591.169 126.907 590.487 127.296 589.813 127.604C589.138 127.912 588.507 128.088 587.921 128.132C587.877 128.132 587.818 128.125 587.745 128.11C587.657 128.095 587.591 128.066 587.547 128.022C587.488 127.978 587.473 127.934 587.503 127.89C587.532 127.831 587.561 127.795 587.591 127.78C587.635 127.751 587.686 127.729 587.745 127.714C587.803 127.685 587.884 127.663 587.987 127.648C588.485 127.545 589.035 127.34 589.637 127.032C590.238 126.709 590.861 126.328 591.507 125.888C592.167 125.433 592.797 124.957 593.399 124.458C593.648 124.267 593.905 124.055 594.169 123.82C594.433 123.571 594.667 123.343 594.873 123.138C594.726 122.903 594.653 122.654 594.653 122.39C594.653 122.038 594.748 121.686 594.939 121.334C595.129 120.982 595.371 120.659 595.665 120.366C595.958 120.058 596.273 119.816 596.611 119.64C596.948 119.449 597.263 119.354 597.557 119.354C597.718 119.354 597.828 119.391 597.887 119.464C597.96 119.537 597.997 119.618 597.997 119.706C597.997 119.897 597.931 120.043 597.799 120.146C597.696 120.234 597.527 120.395 597.293 120.63C597.073 120.865 596.831 121.129 596.567 121.422C596.303 121.701 596.061 121.979 595.841 122.258C595.635 122.522 595.496 122.742 595.423 122.918C595.467 122.991 595.533 123.057 595.621 123.116C595.723 123.175 595.892 123.204 596.127 123.204C596.479 123.204 596.823 123.131 597.161 122.984C597.498 122.837 597.813 122.661 598.107 122.456C598.195 122.412 598.29 122.39 598.393 122.39C598.554 122.39 598.708 122.427 598.855 122.5C599.016 122.559 599.126 122.625 599.185 122.698C599.199 122.713 599.207 122.742 599.207 122.786C599.207 122.933 599.126 123.109 598.965 123.314C598.877 123.417 598.774 123.527 598.657 123.644C598.554 123.761 598.451 123.879 598.349 123.996C597.938 124.451 597.513 124.964 597.073 125.536C596.647 126.093 596.259 126.665 595.907 127.252C595.555 127.824 595.269 128.367 595.049 128.88C594.829 129.408 594.719 129.863 594.719 130.244C594.719 130.523 594.792 130.743 594.939 130.904C595.1 131.08 595.371 131.168 595.753 131.168C595.826 131.168 595.907 131.161 595.995 131.146C596.097 131.146 596.2 131.139 596.303 131.124C596.669 131.065 597.087 130.933 597.557 130.728C598.026 130.523 598.495 130.281 598.965 130.002C599.434 129.738 599.837 129.496 600.175 129.276C600.204 129.247 600.255 129.232 600.329 129.232C600.431 129.232 600.49 129.276 600.505 129.364V129.408C600.505 129.481 600.461 129.562 600.373 129.65C600.343 129.679 600.292 129.723 600.219 129.782C600.145 129.855 600.05 129.943 599.933 130.046C599.463 130.457 598.943 130.816 598.371 131.124C597.799 131.447 597.197 131.659 596.567 131.762C596.42 131.777 596.273 131.791 596.127 131.806C595.98 131.835 595.841 131.85 595.709 131.85ZM602.492 128.396C601.95 128.396 601.554 128.249 601.304 127.956C601.055 127.663 600.93 127.333 600.93 126.966C600.93 126.849 600.938 126.739 600.952 126.636C600.982 126.519 601.011 126.401 601.04 126.284C601.143 125.991 601.326 125.631 601.59 125.206C601.869 124.781 602.177 124.377 602.514 123.996C602.852 123.6 603.174 123.314 603.482 123.138C603.336 122.977 603.262 122.779 603.262 122.544C603.262 122.016 603.673 121.627 604.494 121.378C604.7 121.305 604.92 121.261 605.154 121.246C605.404 121.217 605.66 121.202 605.924 121.202C606.262 121.202 606.592 121.224 606.914 121.268C607.384 121.341 607.794 121.547 608.146 121.884C608.498 122.207 608.704 122.603 608.762 123.072C608.792 123.233 608.792 123.395 608.762 123.556C608.997 123.571 609.224 123.578 609.444 123.578C609.679 123.563 609.892 123.556 610.082 123.556C610.522 123.556 610.97 123.527 611.424 123.468C611.894 123.395 612.319 123.314 612.7 123.226C613.096 123.123 613.39 123.021 613.58 122.918C613.698 122.874 613.786 122.852 613.844 122.852C613.962 122.852 614.035 122.896 614.064 122.984C614.064 123.131 613.925 123.27 613.646 123.402C613.324 123.549 612.832 123.695 612.172 123.842C611.512 123.989 610.816 124.077 610.082 124.106C609.906 124.121 609.694 124.135 609.444 124.15C609.21 124.15 608.946 124.15 608.652 124.15C608.491 124.737 608.176 125.287 607.706 125.8C607.252 126.313 606.716 126.768 606.1 127.164C605.484 127.545 604.854 127.846 604.208 128.066C603.578 128.286 603.006 128.396 602.492 128.396ZM607.97 123.512C608.044 123.292 608.08 123.101 608.08 122.94C608.08 122.676 607.97 122.449 607.75 122.258C607.545 122.067 607.149 121.972 606.562 121.972C605.961 121.972 605.455 122.06 605.044 122.236C604.648 122.397 604.45 122.544 604.45 122.676C604.45 122.705 604.48 122.749 604.538 122.808C604.597 122.867 604.714 122.925 604.89 122.984C605.36 123.131 605.858 123.248 606.386 123.336C606.914 123.424 607.442 123.483 607.97 123.512ZM602.91 127.758C603.189 127.699 603.534 127.567 603.944 127.362C604.37 127.157 604.81 126.9 605.264 126.592C605.734 126.269 606.166 125.917 606.562 125.536C606.973 125.169 607.347 124.7 607.684 124.128C607.142 124.128 606.606 124.121 606.078 124.106C605.565 124.091 605.103 123.989 604.692 123.798C604.516 123.813 604.267 123.952 603.944 124.216C603.622 124.465 603.299 124.781 602.976 125.162C602.654 125.543 602.375 125.932 602.14 126.328C601.92 126.709 601.81 127.039 601.81 127.318C601.81 127.45 601.854 127.567 601.942 127.67C602.045 127.758 602.221 127.802 602.47 127.802C602.529 127.802 602.595 127.802 602.668 127.802C602.742 127.787 602.822 127.773 602.91 127.758ZM612.375 128.352C612.111 128.381 611.92 128.337 611.803 128.22C611.7 128.103 611.649 127.949 611.649 127.758C611.649 127.567 611.685 127.347 611.759 127.098C611.847 126.849 611.942 126.607 612.045 126.372C612.147 126.123 612.25 125.881 612.353 125.646C612.47 125.397 612.558 125.177 612.617 124.986C612.778 124.531 612.917 124.084 613.035 123.644C613.167 123.204 613.233 122.83 613.233 122.522C613.233 122.185 613.145 121.979 612.969 121.906C612.763 121.847 612.646 121.737 612.617 121.576V121.51C612.617 121.393 612.697 121.334 612.859 121.334C612.947 121.334 613.02 121.341 613.079 121.356C613.196 121.371 613.321 121.407 613.453 121.466C613.599 121.51 613.739 121.576 613.871 121.664C613.973 121.723 614.069 121.789 614.157 121.862C614.259 121.921 614.34 122.009 614.399 122.126C614.472 122.243 614.509 122.397 614.509 122.588C614.509 122.764 614.479 122.947 614.421 123.138C614.318 123.461 614.193 123.82 614.047 124.216C613.9 124.597 613.731 124.986 613.541 125.382C613.497 125.485 613.431 125.639 613.343 125.844C613.269 126.035 613.167 126.306 613.035 126.658C613.636 125.954 614.245 125.265 614.861 124.59C615.491 123.915 616.1 123.307 616.687 122.764C617.288 122.221 617.838 121.789 618.337 121.466C618.835 121.129 619.261 120.945 619.613 120.916C619.759 120.901 619.899 120.938 620.031 121.026C620.177 121.114 620.251 121.268 620.251 121.488C620.251 121.576 620.243 121.649 620.229 121.708C620.214 121.811 620.148 121.862 620.031 121.862C619.928 121.862 619.862 121.818 619.833 121.73V121.664C619.598 121.679 619.246 121.847 618.777 122.17C618.307 122.493 617.779 122.903 617.193 123.402C616.606 123.886 616.027 124.399 615.455 124.942C614.883 125.485 614.369 125.998 613.915 126.482C613.475 126.966 613.167 127.347 612.991 127.626C612.932 127.714 612.873 127.802 612.815 127.89C612.771 127.963 612.727 128.037 612.683 128.11C612.58 128.242 612.477 128.323 612.375 128.352ZM628.584 128.242C628.144 128.242 627.741 128.132 627.374 127.912C627.022 127.677 626.846 127.259 626.846 126.658C626.846 126.438 626.875 126.211 626.934 125.976C626.993 125.727 627.059 125.485 627.132 125.25C626.883 125.499 626.575 125.793 626.208 126.13C625.841 126.453 625.438 126.768 624.998 127.076C624.573 127.384 624.14 127.641 623.7 127.846C623.275 128.037 622.871 128.132 622.49 128.132C622.021 128.132 621.639 127.963 621.346 127.626C621.141 127.406 621.038 127.113 621.038 126.746C621.038 126.335 621.17 125.895 621.434 125.426C621.713 124.942 622.072 124.473 622.512 124.018C622.967 123.549 623.451 123.138 623.964 122.786C624.492 122.434 625.005 122.177 625.504 122.016C626.193 121.796 626.743 121.686 627.154 121.686C627.623 121.686 627.961 121.811 628.166 122.06C628.371 122.295 628.503 122.625 628.562 123.05V123.116C628.562 123.307 628.496 123.453 628.364 123.556C628.305 123.585 628.261 123.6 628.232 123.6C628.085 123.6 628.012 123.49 628.012 123.27C628.012 123.167 627.99 123.028 627.946 122.852C627.902 122.661 627.755 122.559 627.506 122.544C627.169 122.5 626.765 122.573 626.296 122.764C625.841 122.94 625.372 123.197 624.888 123.534C624.404 123.857 623.942 124.216 623.502 124.612C623.077 125.008 622.717 125.404 622.424 125.8C622.145 126.181 621.984 126.519 621.94 126.812C621.925 126.856 621.918 126.9 621.918 126.944C621.918 126.988 621.918 127.025 621.918 127.054C621.918 127.274 621.962 127.421 622.05 127.494C622.153 127.567 622.27 127.604 622.402 127.604C622.651 127.604 622.937 127.531 623.26 127.384C623.583 127.223 623.883 127.047 624.162 126.856C624.455 126.665 624.661 126.519 624.778 126.416C625.233 126.035 625.746 125.617 626.318 125.162C626.905 124.693 627.425 124.26 627.88 123.864C627.953 123.805 628.063 123.776 628.21 123.776C628.43 123.776 628.613 123.835 628.76 123.952C628.819 123.996 628.848 124.077 628.848 124.194C628.848 124.37 628.782 124.59 628.65 124.854C628.415 125.353 628.217 125.8 628.056 126.196C627.895 126.592 627.814 126.915 627.814 127.164C627.814 127.516 628.019 127.692 628.43 127.692C628.753 127.692 629.273 127.567 629.992 127.318C630.74 127.039 631.495 126.651 632.258 126.152C633.035 125.653 633.732 125.155 634.348 124.656C634.421 124.583 634.495 124.524 634.568 124.48C634.641 124.421 634.707 124.37 634.766 124.326C634.839 124.267 634.905 124.216 634.964 124.172C635.037 124.113 635.118 124.047 635.206 123.974C635.25 123.959 635.301 123.952 635.36 123.952C635.477 123.952 635.536 124.003 635.536 124.106C635.536 124.194 635.499 124.275 635.426 124.348C635.338 124.465 635.125 124.678 634.788 124.986C634.451 125.294 634.033 125.639 633.534 126.02C633.05 126.401 632.515 126.768 631.928 127.12C631.356 127.457 630.777 127.729 630.19 127.934C629.97 128.007 629.713 128.073 629.42 128.132C629.141 128.205 628.863 128.242 628.584 128.242ZM626.912 120.52C626.765 120.52 626.692 120.461 626.692 120.344C626.692 120.271 626.736 120.205 626.824 120.146C626.912 120.073 627.015 120.007 627.132 119.948C627.513 119.743 627.88 119.515 628.232 119.266C628.584 119.017 628.877 118.804 629.112 118.628L629.156 118.584C629.273 118.555 629.398 118.584 629.53 118.672C629.677 118.745 629.787 118.841 629.86 118.958C629.933 119.061 629.933 119.156 629.86 119.244C629.596 119.391 629.222 119.581 628.738 119.816C628.269 120.036 627.858 120.219 627.506 120.366C627.301 120.469 627.103 120.52 626.912 120.52Z" fill="#FF6F00"/>
</svg>
