<svg width="40" height="40" viewBox="0 0 40 40" fill="none" xmlns="http://www.w3.org/2000/svg">
<g clip-path="url(#clip0_51_9)">
<path d="M31.7188 0C34.4516 0 37.1844 0 40 0C40 13.2 40 26.4 40 40C37.2672 40 34.5344 40 31.7188 40C31.7188 26.8 31.7188 13.6 31.7188 0Z" fill="white"/>
<path d="M21.1719 8.20312C23.9047 8.20312 26.6375 8.20312 29.4531 8.20312C29.4531 18.6961 29.4531 29.1891 29.4531 40C26.7203 40 23.9875 40 21.1719 40C21.1719 29.507 21.1719 19.0141 21.1719 8.20312Z" fill="white"/>
<path d="M0 16.4844C2.73281 16.4844 5.46562 16.4844 8.28125 16.4844C8.28125 24.2445 8.28125 32.0047 8.28125 40C5.54844 40 2.81563 40 0 40C0 32.2398 0 24.4797 0 16.4844Z" fill="white"/>
<path d="M10.5469 24.6875C13.2797 24.6875 16.0125 24.6875 18.8281 24.6875C18.8281 29.7406 18.8281 34.7937 18.8281 40C16.0953 40 13.3625 40 10.5469 40C10.5469 34.9469 10.5469 29.8938 10.5469 24.6875Z" fill="white"/>
</g>
<defs>
<clipPath id="clip0_51_9">
<rect width="40" height="40" fill="white"/>
</clipPath>
</defs>
</svg>
