<svg width="282" height="602" viewBox="0 0 282 602" fill="none" xmlns="http://www.w3.org/2000/svg">
<path d="M77.352 543.387C77.352 556.42 81.1271 585.18 83.0147 597.93H262.095L249.354 549.054L226.703 487.427L218.209 468.302L278.998 426.509L273.42 394.633L267.757 350.715L263.51 326.631L259.263 295.464C255.252 275.866 245.39 232.42 238.028 215.42C230.667 198.419 195.498 174.43 186.498 174.43L167.498 151.43C168.206 107.512 160.875 80.1243 159.46 75.1659C158.044 70.2074 136.101 28.4145 116.282 16.3725C96.463 4.33048 75.936 5.03883 68.1499 7.16389C60.3638 9.28895 39.8369 19.2059 29.2195 29.8312C18.6021 40.4565 10.8162 51.0817 5.86139 65.2488C1.89755 76.5824 7.51298 94.5274 10.8162 102.083L37.498 145.43L39.1293 158.043C40.7809 158.043 49.998 163.43 58.9484 164.93L65.3189 206.211C63.9032 214.475 60.6472 232.278 58.9484 237.378V252.254C67.2064 265.24 83.7224 293.622 83.7224 303.255C83.7224 312.889 80.4192 321.909 78.7676 325.214C77.5879 328.992 75.37 337.823 75.9363 342.923C76.5025 348.023 85.6099 355.909 90.0928 359.215L73.1051 404.55C72.1613 408.8 70.6985 419.142 72.3973 426.509C74.096 433.875 91.0367 445.162 99.2947 449.884L85.1381 490.26C82.5428 502.538 77.352 530.353 77.352 543.387Z" fill="white"/>
<path d="M281.888 426.087C281.408 424.281 280.971 422.459 280.616 420.625C279.549 415.118 278.546 409.599 277.492 404.089C275.786 395.168 274.688 386.164 273.764 377.136C273.344 373.042 273.182 368.906 272.51 364.855C270.72 354.063 268.771 343.296 266.782 332.539C264.792 321.778 262.85 311.011 261.567 300.138C260.306 289.451 258.584 278.842 256.466 268.29C253.704 254.525 250.109 240.997 245.781 227.638C242.164 216.474 236.415 206.686 228.203 198.325C220.557 190.542 212.023 183.851 202.786 178.09C198.269 175.273 193.527 172.799 188.204 171.767C187.614 171.653 187.209 171.379 186.824 170.924C181.806 164.995 176.74 159.109 171.467 153.404C171.086 152.992 170.728 152.558 170.347 152.146C170.004 151.776 169.901 151.379 170.022 150.872C171.577 144.345 171.682 137.741 171.278 131.073C170.954 125.736 170.149 120.477 169.418 115.194C168.341 107.399 166.788 99.7078 164.723 92.1231C163.349 87.0752 162.245 81.9493 160.486 77.0092C156.454 65.689 151.099 55.0227 144.789 44.8048C139.997 37.0456 134.549 29.8592 128.004 23.4649C118.74 14.4161 107.893 7.96874 95.8904 3.37903C89.6351 0.986999 83.1078 -0.279811 76.3829 0.0522724C64.9492 0.617072 54.3053 3.73531 44.7542 10.222C40.4952 13.1145 36.3002 16.0953 32.2832 19.3137C27.3849 23.2384 22.6984 27.4005 18.457 32.0451C12.5817 38.4782 8.41723 45.9833 4.79469 53.8249C3.34356 56.9663 2.08396 60.186 1.10959 63.5125C0.395222 65.9508 -0.119879 68.4355 0.0242811 70.9761C0.241809 74.8069 0.688705 78.6148 1.74185 82.3282C2.50667 85.0253 3.25708 87.7275 3.95419 90.4426C5.95519 98.2345 9.18696 105.414 14.22 111.757C16.5484 114.691 18.4503 117.904 20.0428 121.319C22.1508 125.84 24.835 129.988 28.515 133.44C30.5173 135.317 31.9347 137.629 33.1137 140.099C33.971 141.895 34.5239 143.742 34.5932 145.75C34.6446 147.244 34.8475 148.733 35.0022 150.222C35.3575 153.642 36.8359 156.467 39.5242 158.63C40.9867 159.807 42.5853 160.77 44.2612 161.617C46.6898 162.844 49.2195 163.803 51.8463 164.488C53.0385 164.799 53.7407 165.478 54.1979 166.609C55.1097 168.865 56.0198 171.115 56.5215 173.505C57.155 176.524 57.8014 179.54 58.4051 182.565C59.65 188.803 60.9017 195.039 61.2242 201.417C61.3946 204.786 61.4726 208.143 61.096 211.509C60.5011 216.827 59.1491 221.981 57.831 227.143C56.8603 230.946 55.7011 234.7 55.0521 238.583C54.0684 244.471 54.5759 250.117 57.395 255.492C58.8754 258.316 60.5034 261.039 62.2879 263.672C64.7549 267.311 67.2751 270.915 69.7559 274.545C72.7195 278.881 75.2806 283.438 77.2337 288.323C80.334 296.078 81.211 304.035 79.5274 312.26C78.8115 315.757 77.6323 319.101 76.4697 322.455C75.4289 325.458 74.3536 328.445 73.5888 331.537C72.4118 336.296 72.3799 340.965 74.3238 345.567C76.3639 350.397 79.7911 353.997 84.0881 356.857C84.4763 357.115 84.8948 357.329 85.3049 357.553C85.6929 357.765 85.8038 358.117 85.6906 358.494C85.4759 359.208 85.2112 359.909 84.9515 360.609C82.2534 367.88 79.4783 375.124 76.8718 382.428C74.1394 390.085 71.5368 397.791 69.6676 405.718C68.5285 410.548 67.5335 415.392 67.6996 420.412C67.9205 427.083 70.3715 432.772 74.9771 437.551C76.5369 439.169 78.2743 440.595 80.0541 441.973C84.7293 445.591 89.6717 448.769 95.0324 451.283C96.3427 451.898 96.3229 451.931 95.8541 453.388C93.0487 462.105 90.2172 470.815 87.4488 479.544C84.9631 487.381 82.3141 495.164 80.3142 503.155C77.6951 513.619 75.8951 524.207 75.1102 534.955C74.3789 544.972 74.8608 554.977 75.8207 564.959C76.394 570.918 77.0808 576.866 77.7502 582.816C78.3778 588.394 79.2296 593.939 80.3582 599.44C80.5268 600.261 80.7803 601.075 80.5924 601.93C92.949 601.93 105.306 601.93 117.662 601.93C117.305 600.799 118.081 599.948 118.461 599.041C122.501 589.387 126.658 579.778 130.105 569.888C137.026 550.036 143.894 530.166 150.829 510.318C155.268 497.617 159.621 484.88 164.847 472.472C169.601 461.185 173.693 449.646 178.018 438.196C179.01 435.57 179.924 432.915 180.041 430.067C180.072 429.297 180.219 428.444 180.794 428.008C182.013 427.082 181.956 425.739 182.214 424.497C182.399 423.606 182.137 423.082 181.556 422.837C180.887 422.555 180.266 422.671 179.728 423.135C179.299 423.505 178.912 423.945 178.881 424.539C178.845 425.222 178.636 425.806 178.199 426.331C177.388 427.306 177.101 428.496 176.954 429.709C176.601 432.615 175.612 435.334 174.609 438.055C169.698 451.383 164.66 464.662 159.188 477.772C158.945 478.355 158.847 479.033 158.174 479.498C157.887 479.378 157.535 479.267 157.219 479.092C155.34 478.05 153.394 477.105 151.609 475.919C147.544 473.218 143.238 470.994 138.779 469.038C137.41 468.437 136.047 467.822 134.707 467.161C123.643 461.713 112.59 456.243 101.519 450.811C100.352 450.239 99.2635 449.542 98.0531 449.023C90.5936 445.826 83.913 441.389 77.9502 435.898C74.2512 432.491 71.9513 428.252 71.2217 423.268C70.7733 420.205 70.8325 417.097 71.3124 414.032C71.8908 410.336 72.7038 406.686 73.6918 403.075C77.0018 390.98 81.376 379.244 85.7637 367.517C89.4959 357.542 93.3655 347.619 96.8988 337.57C97.9527 334.572 98.9425 331.551 100.071 328.581C102.924 321.07 105.789 313.562 108.744 306.089C111.837 298.264 114.436 290.262 117.37 282.381C121.022 272.573 124.731 262.787 128.102 252.876C132.726 239.283 138.732 226.336 146.366 214.162C149.658 208.911 153.371 204.012 158.026 199.848C161.094 197.103 164.097 194.288 167.245 191.63C169.675 189.578 172.056 187.459 174.347 185.255C177.794 181.939 181.623 179.081 185.224 175.954C186.616 174.745 187.979 174.571 189.588 175.145C190.027 175.302 190.465 175.469 190.889 175.664C194.199 177.186 197.55 178.638 200.645 180.576C209.958 186.409 218.623 193.077 226.251 201.008C233.004 208.03 238.309 215.977 241.474 225.292C244.663 234.677 247.605 244.126 249.923 253.767C253.84 270.061 256.751 286.528 258.706 303.171C259.263 307.906 260 312.622 260.763 317.329C261.466 321.666 262.322 325.978 263.097 330.303C264.715 339.321 266.35 348.337 267.928 357.362C268.797 362.335 269.808 367.288 270.042 372.355C270.138 374.41 270.334 376.464 270.574 378.507C271.633 387.517 272.668 396.531 274.406 405.444C275.641 411.774 276.895 418.1 278.161 424.424C278.66 426.915 278.679 426.445 276.803 427.828C276.502 428.049 276.185 428.248 275.878 428.462C259.782 439.722 243.687 450.982 227.592 462.243C217.398 469.374 207.207 476.509 197.009 483.634C196.455 484.021 195.958 484.6 195.199 484.579C194.983 483.825 195.241 483.318 195.429 482.805C196.557 479.735 197.671 476.659 198.829 473.6C202.337 464.338 205.846 455.076 208.889 445.647C211.273 438.261 213.075 430.711 215.142 423.237C219.154 408.733 223.195 394.243 225.825 379.395C227.591 369.419 228.866 359.421 228.709 349.275C228.636 344.596 228.517 339.918 228.428 335.24C228.381 332.807 228.324 330.373 228.327 327.94C228.329 325.309 227.881 322.721 227.674 320.111C227.613 319.343 227.847 319.051 228.55 318.987C229.295 318.919 230.045 318.912 230.792 318.862C233.5 318.684 236.209 318.525 238.913 318.303C240.162 318.2 240.604 317.725 240.669 316.541C241.062 309.418 240.678 302.319 239.85 295.247C239.043 288.349 237.138 281.695 235.091 275.08C233.872 271.144 232.124 267.416 230.639 263.584C230.353 262.848 229.729 262.581 229.064 262.724C228.348 262.878 227.784 263.652 227.976 264.428C228.245 265.514 228.578 266.592 228.992 267.631C230.549 271.542 231.874 275.531 233.051 279.571C234.911 285.954 236.503 292.392 236.95 299.057C237.2 302.792 237.473 306.525 237.651 310.263C237.713 311.564 237.515 312.877 237.449 314.184C237.416 314.865 237.039 315.191 236.399 315.244C235.467 315.321 234.533 315.385 233.599 315.44C229.302 315.696 225.004 315.926 220.708 316.204C210.623 316.858 200.54 317.542 190.455 318.198C181.865 318.757 173.272 319.296 164.681 319.841C161.132 320.066 157.583 320.301 154.033 320.496C152.45 320.583 152.429 320.549 151.887 318.963C147.966 307.478 146.782 295.817 149.605 283.889C150.53 279.978 151.399 276.053 152.281 272.133C152.444 271.405 152.602 270.667 152.659 269.926C152.707 269.316 152.341 268.862 151.776 268.622C151.223 268.387 150.391 268.678 150.121 269.303C149.752 270.155 149.449 271.044 149.209 271.942C148.487 274.651 147.776 277.364 147.121 280.09C146.27 283.636 145.521 287.2 145.137 290.839C144.534 296.557 144.783 302.23 145.72 307.897C146.47 312.432 147.647 316.848 149.186 321.171C150.057 323.619 150.585 323.986 153.071 323.838C157.087 323.6 161.101 323.307 165.115 323.03C167.899 322.838 170.684 322.648 173.464 322.678C173.705 323.58 173.306 324.256 173.101 324.933C172.245 327.752 171.993 330.624 172.257 333.539C172.418 335.308 172.625 337.079 172.946 338.825C174.284 346.098 174.997 353.458 175.978 360.779C176.947 368.01 177.708 375.268 178.524 382.518C179.236 388.842 179.777 395.185 179.95 401.546C180.103 407.157 180.356 412.772 180.068 418.389C180.01 419.521 180.721 420.343 181.595 420.372C182.344 420.397 183.104 419.706 183.275 418.765C183.374 418.216 183.395 417.648 183.406 417.088C183.433 415.684 183.446 414.28 183.443 412.876C183.423 404.731 183.173 396.595 182.35 388.485C181.803 383.088 181.269 377.689 180.678 372.296C180.331 369.135 179.882 365.986 179.484 362.831C178.806 357.449 178.168 352.061 177.445 346.685C176.946 342.978 176.308 339.291 175.774 335.589C175.193 331.558 175.278 327.567 176.642 323.671C177.118 322.314 177.101 322.309 178.622 322.199C180.489 322.065 182.354 321.908 184.222 321.793C191.601 321.341 198.981 320.916 206.358 320.452C210.561 320.188 214.759 319.861 218.961 319.582C220.722 319.466 222.487 319.317 224.317 319.414C224.908 321.333 224.924 323.199 224.968 325.054C225.136 332.166 225.271 339.278 225.436 346.389C225.613 353.982 225.348 361.562 224.216 369.07C222.613 379.704 220.623 390.273 217.86 400.676C215.246 410.52 212.476 420.324 209.903 430.179C207.516 439.32 204.679 448.307 201.474 457.193C197.607 467.915 193.374 478.498 189.829 489.343C185.33 503.107 180.456 516.749 176.092 530.562C170.909 546.969 164.938 563.088 157.917 578.808C154.524 586.405 151.504 594.154 148.553 601.93C186.559 601.93 224.565 601.93 262.571 601.93C262.485 601.19 262.461 600.436 262.304 599.711C261.092 594.139 259.936 588.554 258.61 583.009C253.912 563.365 248.588 543.9 241.782 524.863C236.743 510.77 231.316 496.847 224.441 483.525C222.56 479.88 220.786 476.179 218.66 472.546C219.564 471.884 220.375 471.267 221.208 470.684C240.215 457.382 259.225 444.084 278.234 430.784C279.154 430.141 280.097 429.525 280.969 428.822C281.831 428.13 282.195 427.245 281.888 426.087ZM130.082 114.386C132.942 118.442 136.046 122.294 139.398 125.962C144.641 131.697 150.819 136.153 157.666 139.74C158.328 140.087 158.996 140.423 159.678 140.724C160.163 140.938 160.588 140.672 160.679 140.109C160.769 139.556 160.851 138.996 160.863 138.438C160.891 137.223 160.872 136.007 160.872 134.791C160.621 126.927 159.766 119.128 157.854 111.48C156.699 106.86 155.44 102.264 154.149 97.6795C153.645 95.8855 153.066 94.0865 152.28 92.4019C148.766 84.8657 145.255 77.3228 140.791 70.2772C139.386 68.061 137.969 65.8623 135.939 64.1416C135.733 63.9676 135.571 63.7166 135.459 63.4692C135.398 63.3351 135.428 63.089 135.519 62.9744C135.618 62.8501 135.864 62.7268 135.996 62.7664C136.34 62.8694 136.693 63.0141 136.98 63.2267C138.504 64.3586 139.633 65.8486 140.681 67.4071C143.397 71.4474 145.771 75.6858 147.963 80.0276C148.679 81.4452 149.324 82.9005 150.077 84.2978C153.558 90.7572 155.922 97.6185 157.67 104.729C159.008 110.175 160.489 115.586 161.211 121.159C161.836 125.981 162.461 130.81 162.447 135.684C162.443 137.36 162.26 139.046 162.038 140.711C161.804 142.474 161.006 142.847 159.276 142.154C159.015 142.05 158.75 141.954 158.501 141.828C152.464 138.78 146.789 135.191 141.857 130.522C137.288 126.198 133.274 121.396 129.712 116.214C129.448 115.829 129.17 115.448 128.96 115.034C128.797 114.714 128.662 114.353 128.952 113.998C129.178 113.721 129.723 113.877 130.082 114.386ZM113.987 33.4738C114.093 33.3435 114.299 33.2946 114.505 33.185C114.729 33.2606 115.006 33.3111 115.238 33.4411C115.886 33.8036 116.558 34.1431 117.145 34.5908C121.792 38.1361 125.628 42.4071 128.55 47.481C129.018 48.2937 129.034 49.1088 128.619 49.178C127.925 49.2936 127.605 48.7602 127.334 48.2979C125.632 45.3861 123.583 42.74 121.274 40.2921C119.226 38.1201 117.132 35.9971 114.465 34.5545C114.306 34.4682 114.165 34.3354 114.038 34.2031C113.824 33.9809 113.797 33.7055 113.987 33.4738ZM120.252 108.8C120.178 109.253 119.823 109.387 119.453 109.42C118.968 109.463 118.619 109.001 118.704 108.504C118.777 108.078 119.052 107.848 119.457 107.843C119.886 107.838 120.308 108.385 120.252 108.8ZM112.504 116.521C114.137 115.792 115.602 114.791 116.947 113.614C117.438 113.184 117.918 112.741 118.426 112.333C118.656 112.148 118.946 112.169 119.191 112.346C119.462 112.541 119.457 112.838 119.353 113.097C119.251 113.349 119.098 113.605 118.905 113.794C116.809 115.842 114.475 117.508 111.644 118.419C110.466 118.798 109.283 118.975 108.152 118.94C105.602 119.019 103.485 118.128 101.6 116.629C99.1013 114.643 97.6003 111.973 96.4969 109.044C96.4357 108.882 96.4104 108.642 96.4877 108.505C96.6128 108.283 96.8123 108.076 97.0303 107.947C97.1279 107.889 97.4288 107.986 97.4963 108.098C97.8302 108.652 98.1638 109.216 98.4107 109.812C98.9886 111.207 99.764 112.478 100.702 113.652C103.728 117.442 108.068 118.503 112.504 116.521ZM103.46 75.0955C103.706 75.3699 103.932 75.6804 104.085 76.0119C104.197 76.2537 104.173 76.5765 103.865 76.7145C103.709 76.7842 103.482 76.8208 103.334 76.76C102.524 76.4287 102.049 75.701 101.478 75.0973C98.9044 72.3781 96.0894 69.9335 93.0947 67.6949C90.1158 65.4684 86.7831 64.1385 83.0617 63.8136C79.1557 63.4728 75.6804 64.4405 72.7202 67.099C71.6689 68.0432 70.7872 68.2968 70.6897 67.8241C70.4979 66.8935 71.3309 66.5771 71.8257 66.095C74.575 63.4159 77.9661 62.3326 81.5295 62.1645C85.6177 62.3787 89.2879 63.3523 92.5472 65.5232C96.6035 68.2249 100.212 71.4616 103.46 75.0955ZM58.8806 40.0838C56.1045 42.5914 53.3605 45.1189 51.686 48.5617C51.5727 48.7947 51.341 48.9963 51.1175 49.1391C50.9891 49.2215 50.7304 49.2192 50.5965 49.1412C50.4601 49.0619 50.3203 48.8372 50.3311 48.6868C50.3573 48.3267 50.4253 47.955 50.5582 47.6203C51.0447 46.3947 51.7845 45.3184 52.6191 44.3074C55.0688 41.3406 57.8604 38.7305 60.9972 36.5104C64.906 33.7444 69.3755 32.5334 74.2177 31.9511C74.4332 32.034 74.7866 32.1341 75.1004 32.3064C75.2369 32.3813 75.3754 32.6132 75.3604 32.7582C75.3447 32.9093 75.1717 33.1106 75.0211 33.168C74.6829 33.2972 74.3199 33.3924 73.9598 33.429C68.2106 34.0129 63.1773 36.2028 58.8806 40.0838ZM13.0224 59.8387C13.1619 59.3959 13.3092 58.9426 13.5391 58.5433C17.6 51.4915 21.5896 44.3965 27.093 38.3037C33.4051 31.3153 40.4226 25.1964 48.5554 20.3853C55.2024 16.4531 62.1927 13.4365 69.8033 11.9378C73.0273 11.303 76.2663 10.8978 79.0162 10.9467C85.9354 10.8298 91.9518 12.4292 97.7939 14.8323C98.6514 15.185 99.5662 15.4767 100.133 16.2909C100.215 16.4091 100.197 16.6683 100.122 16.805C100.045 16.9445 99.8474 17.0848 99.6901 17.101C98.9955 17.1729 98.457 16.726 97.876 16.4613C93.7628 14.5883 89.4362 13.4602 84.9963 12.7263C79.6417 11.8412 74.3629 12.4998 69.1124 13.573C63.6703 14.6853 58.5158 16.6539 53.6319 19.2393C39.6068 26.6638 28.2607 37.0168 19.9272 50.5789C18.0194 53.6838 16.1908 56.8373 14.3242 59.9674C14.2302 60.1249 14.1448 60.2972 14.0161 60.422C13.8086 60.6236 13.5365 60.7309 13.2669 60.5731C12.9956 60.414 12.9364 60.1121 13.0224 59.8387ZM9.44026 81.2063C9.31876 81.1232 9.21348 80.8961 9.23407 80.7512C9.27166 80.486 9.35455 80.1959 9.51029 79.9835C10.7251 78.3249 11.9471 76.6712 13.1941 75.0365C17.2615 69.7041 22.763 68.2093 29.1403 69.1504C31.8541 69.551 34.3875 70.5125 36.6783 72.0146C38.8644 73.4479 41.015 74.9415 43.1174 76.4951C45.6775 78.387 48.2956 80.1653 51.184 81.5297C53.0594 82.4155 54.9993 83.0567 57.068 83.2411C59.32 83.4418 61.3112 82.8001 63.0136 81.2897C64.1146 80.3128 64.6879 79.0694 64.9173 77.6407C64.9814 77.2412 65.2031 76.9562 65.6121 76.8828C65.9699 76.8185 66.2778 77.3712 66.2405 77.9555C66.1473 79.4087 65.6286 80.6899 64.6365 81.7518C62.9755 83.5294 60.9632 84.591 58.4893 84.7012C56.4013 84.7941 54.4106 84.416 52.4626 83.6643C49.0326 82.3408 45.9345 80.451 43.0175 78.2462C40.6314 76.4424 38.2389 74.6491 35.6695 73.1099C32.6346 71.2917 29.3632 70.3235 25.5623 70.4458C21.2794 70.2496 17.6095 71.9891 14.7436 75.4443C13.4912 76.9539 12.3335 78.5417 11.1105 80.076C10.7678 80.5056 10.3616 80.8905 9.94766 81.2535C9.85421 81.3343 9.56769 81.2933 9.44026 81.2063ZM89.6182 309.963C89.387 310.574 89.1409 311.179 88.8747 311.775C86.8045 316.409 85.4638 321.261 84.7592 326.27C84.1189 330.82 84.553 335.221 87.2086 339.177C87.4068 339.472 87.5276 339.835 87.6097 340.184C87.6393 340.309 87.4823 340.543 87.3481 340.623C87.214 340.704 86.935 340.732 86.8361 340.647C86.4891 340.348 86.139 340.027 85.8847 339.65C83.7676 336.519 83.0622 332.989 83.004 329.281C83.3379 323.636 84.6853 318.222 86.7488 312.978C87.326 311.511 87.8375 309.999 88.8255 308.733C89.0037 308.505 89.3304 308.496 89.5651 308.687C89.6913 308.789 89.8025 308.997 89.7981 309.154C89.7901 309.426 89.7157 309.706 89.6182 309.963ZM90.045 298.937C89.9016 299.259 89.5991 299.269 89.3432 299.242C89.2063 299.228 88.9944 299.008 88.9818 298.867C88.8567 297.473 88.8098 296.07 88.6587 294.679C88.191 290.372 87.0194 286.216 85.3778 282.247C82.3051 274.82 78.9302 267.53 74.5243 260.758C72.0265 256.919 69.6903 252.975 67.2892 249.074C66.3568 247.559 65.5534 245.978 64.9201 244.311C63.3271 240.119 63.479 235.885 64.5842 231.624C65.4996 228.094 66.5643 224.615 67.9267 221.225C69.2501 217.933 70.5941 214.644 71.2933 211.137C72.0656 207.262 72.3951 203.36 72.1372 199.416C71.9582 196.681 71.1535 194.095 70.1789 191.557C68.5041 187.196 66.8035 182.845 65.1392 178.481C64.8089 177.615 64.5747 176.711 64.3365 175.813C64.2621 175.534 64.4449 175.269 64.7191 175.163C65.0154 175.049 65.2679 175.216 65.4224 175.454C65.5735 175.686 65.67 175.957 65.7725 176.218C67.6486 181.001 69.5117 185.79 71.3991 190.568C72.8912 194.345 73.7953 198.235 73.7355 203.004C73.5015 207.666 72.7887 212.922 70.7973 217.947C69.3523 221.594 67.8322 225.217 66.8153 229.017C66.3808 230.641 65.9447 232.269 65.6105 233.915C64.6995 238.402 65.3745 242.67 67.625 246.654C68.9118 248.932 70.2788 251.166 71.6529 253.393C73.5185 256.417 75.4778 259.383 77.3035 262.43C81.2512 269.019 84.5813 275.927 87.2632 283.112C88.8279 287.306 90.09 291.636 90.2754 296.18C90.3132 297.109 90.4424 298.043 90.045 298.937ZM93.4137 227.382C93.2502 227.155 93.0811 226.929 92.8921 226.724C89.1226 222.621 87.9392 217.637 87.949 211.31C88.0779 210.194 88.3078 208.156 88.5547 206.118C88.598 205.76 89.1695 205.373 89.3473 205.554C89.5224 205.732 89.6962 205.975 89.7332 206.21C89.7899 206.571 89.7404 206.952 89.7157 207.323C89.6599 208.162 89.5716 208.999 89.5319 209.839C89.4045 212.55 89.4699 215.238 90.0182 217.924C90.497 220.269 91.4263 222.357 92.8721 224.237C93.7829 225.422 94.7438 226.571 95.6021 227.792C97.3781 230.319 98.9458 232.962 99.8674 235.944C100.147 236.848 100.432 237.745 99.9897 238.656C99.8886 238.865 99.5634 239.098 99.3559 239.085C99.1474 239.072 98.7994 238.78 98.7821 238.586C98.3865 234.178 95.8685 230.796 93.4137 227.382ZM123.879 238.773C123.835 238.954 123.77 239.132 123.692 239.301C119.531 248.313 116.624 257.787 113.47 267.168C110.314 276.554 106.782 285.8 103.378 295.096C101.55 300.088 99.6211 305.061 98.499 310.285C98.4163 310.67 98.2477 310.991 97.7725 310.958C97.2574 310.921 97.2926 310.505 97.1909 309.962C97.3825 309.14 97.5745 308.13 97.8533 307.146C99.4326 301.571 101.335 296.103 103.425 290.701C107.944 279.026 111.918 267.161 115.906 255.299C117.603 250.253 119.422 245.25 121.59 240.382C121.931 239.615 122.322 238.87 122.703 238.121C122.881 237.772 123.184 237.438 123.571 237.589C124.112 237.801 123.989 238.323 123.879 238.773ZM108.956 224.094C108.481 219.104 107.041 214.395 104.596 210.005C104.416 209.682 104.232 209.337 104.167 208.982C104.123 208.746 104.209 208.352 104.377 208.241C104.711 208.022 105.091 208.15 105.308 208.516C107.375 211.993 109.004 215.655 109.778 219.642C110.509 223.412 110.907 227.223 110.905 231.477C110.987 233.509 110.816 235.934 110.373 238.331C110.205 239.243 109.904 240.132 109.63 241.021C109.541 241.309 109.258 241.396 108.959 241.378C108.617 241.358 108.432 241.109 108.449 240.84C108.482 240.284 108.589 239.729 108.699 239.181C109.711 234.167 109.436 229.128 108.956 224.094ZM134.203 206.885C134.078 206.992 133.812 207.097 133.705 207.035C133.306 206.805 132.891 206.557 132.581 206.224C131.056 204.581 129.496 202.963 128.069 201.237C124.135 196.481 120.573 191.444 117.026 186.398C115.468 184.181 113.898 181.973 112.295 179.789C111.24 178.352 110.019 177.069 108.527 176.059C105.923 174.297 103.198 173.942 100.303 175.271C98.1753 176.247 96.1901 177.466 94.2441 178.761C92.0599 180.215 89.7785 181.484 87.179 182.051C86.4538 182.209 85.7176 182.316 85.351 182.381C84.4191 182.325 83.827 182.424 83.4002 181.951C83.2913 181.831 83.2038 181.627 83.2205 181.474C83.2383 181.315 83.3616 181.121 83.4975 181.033C83.6388 180.941 83.8556 180.914 84.0307 180.934C86.1673 181.18 88.1047 180.507 89.9394 179.549C91.4253 178.773 92.8504 177.873 94.2637 176.968C96.1538 175.757 98.0925 174.658 100.152 173.752C103.046 172.478 105.782 172.808 108.475 174.299C110.138 175.22 111.529 176.457 112.696 177.935C113.853 179.4 114.952 180.914 116.045 182.428C119.271 186.898 122.448 191.404 125.71 195.847C128.089 199.088 130.634 202.201 133.436 205.093C133.82 205.488 134.303 205.828 134.403 206.418C134.428 206.563 134.321 206.782 134.203 206.885ZM183.29 172.788C182.715 173.4 182.125 174.008 181.479 174.542C176.574 178.601 171.817 182.823 167.206 187.216C163.679 190.576 159.853 193.588 155.942 196.489C155.791 196.6 155.647 196.72 155.494 196.827C153.703 198.076 153.362 197.998 151.68 196.442C148.786 193.767 146.181 190.846 143.722 187.766C140.627 183.889 137.319 180.19 133.844 176.644C129.063 171.763 124.32 166.845 119.5 162.003C117.455 159.949 115.294 158.006 113.116 156.091C110.882 154.127 108.283 153.852 105.504 154.722C104.416 155.063 103.48 155.683 102.549 156.305C100.752 157.505 99.1497 158.943 97.5915 160.43C95.695 162.241 93.7146 163.949 91.6686 165.592C87.7474 168.742 83.3173 170.812 78.5739 172.421C75.0335 173.622 71.9634 172.974 68.9978 171.034C68.1406 170.473 67.3438 169.807 66.5746 169.127C62.5286 165.55 58.0625 162.771 52.7636 161.399C50.1447 160.721 47.58 159.798 45.2139 158.442C44.0001 157.747 42.8077 156.998 41.6828 156.168C39.7894 154.771 38.6868 152.847 38.3377 150.526C38.1434 149.233 37.9704 147.924 37.9462 146.619C37.844 141.089 35.4136 136.546 32.0039 132.417C31.2311 131.481 30.36 130.622 29.4966 129.766C26.9352 127.225 25.1641 124.152 23.5047 120.998C23.1996 120.418 23.2282 119.951 23.7765 119.538C28.7436 115.797 34.154 114.059 40.3519 115.848C40.7089 115.951 41.0698 116.061 41.4364 116.108C42.151 116.2 42.8471 115.812 43.0162 115.22C43.2121 114.533 43.0541 113.916 42.4896 113.453C41.5932 112.717 40.5164 112.37 39.4012 112.212C34.5391 111.526 29.8773 112.049 25.6104 114.684C24.3423 115.467 23.1195 116.323 21.7825 117.207C21.0341 116.017 20.3373 114.808 19.5421 113.666C17.7776 111.134 15.9584 108.639 14.1734 106.12C13.5789 105.282 13.0355 104.407 12.4437 103.567C10.1243 100.274 9.86399 96.6457 10.6865 92.8429C11.2235 90.36 12.1464 88.0282 13.3483 85.7857C14.62 83.413 16.5335 81.6471 18.5883 80.0196C20.5512 78.4647 22.8629 78.2096 25.2474 78.6395C26.6221 78.8874 27.9571 79.306 29.2404 79.913C31.7934 81.1201 34.1239 82.6616 36.3591 84.3689C37.9199 85.561 39.4781 86.7599 41.0835 87.8902C46.7783 91.9 53.1206 93.8484 60.0815 93.5609C64.004 93.3987 67.9277 93.1449 71.8226 92.5816C72.9517 92.4184 74.003 92.0722 75.0062 91.5532C77.3928 90.318 78.2375 88.6342 77.6243 86.02C77.3432 84.8219 77.1591 83.6349 77.1897 82.4139C77.2953 78.1944 79.8819 75.7076 84.1429 75.6474C85.6697 75.6258 87.1492 75.8927 88.5388 76.4279C95.3619 79.0568 100.145 83.7881 102.829 90.601C103.487 92.2712 103.746 94.0292 103.688 95.8283C103.144 96.8032 102.126 97.1343 101.214 97.5577C96.9605 99.5325 94.465 102.707 94.2313 107.497C93.978 112.682 96.6908 116.266 100.842 118.684C106.481 121.968 112.22 121.751 117.73 118.09C118.723 117.43 119.573 116.477 120.904 116.474C126.776 127.166 134.819 135.904 144.799 142.862C147.938 145.051 151.365 146.76 154.751 148.552C158.047 150.297 161.48 151.284 165.084 151.881C165.963 152.027 166.608 152.35 167.199 153.044C172.238 158.954 177.315 164.833 182.381 170.72C182.686 171.075 183.013 171.41 183.309 171.771C183.583 172.105 183.562 172.498 183.29 172.788Z" fill="black"/>
<path d="M81.5982 152.588C80.9319 152.588 80.2987 152.719 79.7094 153.034C78.6418 153.604 77.5354 154.114 76.5191 154.765C74.55 156.026 72.5505 157.216 70.3683 158.076C70.0246 158.212 69.6648 158.346 69.3723 158.562C68.8783 158.927 68.6868 159.473 68.8819 160.052C69.0701 160.611 69.4928 160.973 70.1217 161.026C70.6971 161.074 71.2276 160.924 71.7484 160.695C73.1967 160.058 74.6496 159.432 76.1007 158.801C76.1499 158.741 76.2045 158.695 76.2616 158.656C77.4499 157.593 78.2166 157.23 80.345 156.319C79.3148 157.904 78.5257 158.802 77.3387 159.31C75.8889 160.655 74.1376 161.553 72.4772 162.585C71.8444 162.978 71.1674 163.305 70.5593 163.732C69.8666 164.218 69.6503 165.039 69.9518 165.693C70.2514 166.344 71.0783 166.693 71.8493 166.455C72.2934 166.317 72.7392 166.152 73.1455 165.929C75.7674 164.488 78.3139 162.929 80.5914 160.97C81.5876 160.113 82.469 159.15 83.2001 158.055C83.6704 157.35 84.0422 156.6 84.2095 155.762C84.5532 154.042 83.3528 152.588 81.5982 152.588Z" fill="#030202"/>
<path d="M118.226 99.073C114.542 96.1723 110.311 95.0362 105.634 95.6615C104.99 95.7478 104.337 95.7743 103.688 95.8286C102.34 96.2268 101.052 96.7623 99.8212 97.4486C92.583 101.486 91.1865 110.445 96.8294 116.534C102.339 122.48 112.571 123.626 119.192 117.92C119.758 117.433 120.333 116.956 120.904 116.474C121.317 115.745 121.761 115.032 122.136 114.285C122.811 112.941 123.235 111.529 123.327 110.009C123.604 105.432 121.73 101.832 118.226 99.073ZM119.352 113.096C119.251 113.349 119.098 113.605 118.904 113.794C116.809 115.842 114.475 117.508 111.643 118.419C110.466 118.798 109.283 118.975 108.152 118.94C105.601 119.019 103.485 118.127 101.599 116.629C99.1009 114.643 97.5998 111.973 96.4965 109.044C96.4352 108.881 96.41 108.641 96.4872 108.505C96.6123 108.283 96.8118 108.076 97.0299 107.947C97.1274 107.889 97.4284 107.986 97.4958 108.098C97.8297 108.652 98.1634 109.215 98.4102 109.811C98.9882 111.207 99.7635 112.477 100.702 113.652C103.728 117.442 108.067 118.503 112.503 116.522C114.136 115.792 115.601 114.791 116.946 113.614C117.437 113.184 117.917 112.742 118.425 112.333C118.656 112.148 118.945 112.17 119.19 112.346C119.461 112.541 119.456 112.838 119.352 113.096ZM119.452 109.42C118.967 109.463 118.618 109.001 118.704 108.504C118.777 108.078 119.052 107.848 119.457 107.843C119.886 107.838 120.308 108.385 120.252 108.8C120.178 109.253 119.823 109.387 119.452 109.42Z" fill="#D42488"/>
<path d="M43.6006 127.865C41.0489 127.866 38.9926 129.919 38.9941 132.464C38.9957 135.204 41.6614 137.696 44.5165 137.626C46.908 137.567 48.6918 135.492 48.5764 132.904C48.4539 130.152 46.1942 127.864 43.6006 127.865ZM43.537 134.719C43.3697 135.106 42.9825 135.233 42.6105 135.057C41.5244 134.544 40.9053 133.663 40.8131 132.467C40.7802 132.04 41.1599 131.859 41.5203 131.744C42.913 131.76 44.0789 133.466 43.537 134.719ZM45.7705 133.461C45.6804 133.704 45.5483 133.974 45.2625 133.782C45.0901 133.666 45.0321 133.38 44.9227 133.17C45.0772 133.108 45.2329 132.992 45.3861 132.995C45.6567 133 45.8763 133.117 45.7705 133.461Z" fill="#050404"/>
</svg>
